solid OpenSCAD_Model
  facet normal -1 0 0
    outer loop
      vertex 0.75 0.75 0
      vertex 0.75 43.25 1
      vertex 0.75 43.25 0
    endloop
  endfacet
  facet normal -1 -0 0
    outer loop
      vertex 0.75 43.25 1
      vertex 0.75 0.75 0
      vertex 0.75 0.75 1
    endloop
  endfacet
  facet normal 0 0 1
    outer loop
      vertex 4.30902 39.9122 1
      vertex 43.691 39.9122 1
      vertex 4.41354 40.0933 1
    endloop
  endfacet
  facet normal 0 0 1
    outer loop
      vertex 43.691 4.08778 1
      vertex 4.47815 3.70791 1
      vertex 4.5 3.5 1
    endloop
  endfacet
  facet normal 0 0 1
    outer loop
      vertex 43.691 39.9122 1
      vertex 4.30902 39.9122 1
      vertex 43.691 4.08778 1
    endloop
  endfacet
  facet normal 0 0 1
    outer loop
      vertex 43.691 4.08778 1
      vertex 4.41354 3.90674 1
      vertex 4.47815 3.70791 1
    endloop
  endfacet
  facet normal 0 0 1
    outer loop
      vertex 4.30902 4.08778 1
      vertex 43.691 4.08778 1
      vertex 4.30902 39.9122 1
    endloop
  endfacet
  facet normal 0 0 1
    outer loop
      vertex 43.691 4.08778 1
      vertex 4.30902 4.08778 1
      vertex 4.41354 3.90674 1
    endloop
  endfacet
  facet normal -0 0 1
    outer loop
      vertex 4.16913 39.7569 1
      vertex 4.30902 4.08778 1
      vertex 4.30902 39.9122 1
    endloop
  endfacet
  facet normal 0 0 1
    outer loop
      vertex 4.16913 39.7569 1
      vertex 4.16913 4.24314 1
      vertex 4.30902 4.08778 1
    endloop
  endfacet
  facet normal 0 0 1
    outer loop
      vertex 4.16913 39.7569 1
      vertex 4 4.36602 1
      vertex 4.16913 4.24314 1
    endloop
  endfacet
  facet normal -0 0 1
    outer loop
      vertex 4 39.634 1
      vertex 4 4.36602 1
      vertex 4.16913 39.7569 1
    endloop
  endfacet
  facet normal -0 0 1
    outer loop
      vertex 3.80902 39.5489 1
      vertex 4 4.36602 1
      vertex 4 39.634 1
    endloop
  endfacet
  facet normal 0 0 1
    outer loop
      vertex 3.80902 39.5489 1
      vertex 3.80902 4.45106 1
      vertex 4 4.36602 1
    endloop
  endfacet
  facet normal -0 0 1
    outer loop
      vertex 3.60453 39.5055 1
      vertex 3.80902 4.45106 1
      vertex 3.80902 39.5489 1
    endloop
  endfacet
  facet normal 0 0 1
    outer loop
      vertex 3.60453 39.5055 1
      vertex 3.60453 4.49452 1
      vertex 3.80902 4.45106 1
    endloop
  endfacet
  facet normal -0 0 1
    outer loop
      vertex 3.39547 39.5055 1
      vertex 3.60453 4.49452 1
      vertex 3.60453 39.5055 1
    endloop
  endfacet
  facet normal 0 0 1
    outer loop
      vertex 3.39547 39.5055 1
      vertex 3.39547 4.49452 1
      vertex 3.60453 4.49452 1
    endloop
  endfacet
  facet normal 0 0 1
    outer loop
      vertex 3.19098 39.5489 1
      vertex 3.39547 4.49452 1
      vertex 3.39547 39.5055 1
    endloop
  endfacet
  facet normal 0 0 1
    outer loop
      vertex 3.19098 39.5489 1
      vertex 3.19098 4.45106 1
      vertex 3.39547 4.49452 1
    endloop
  endfacet
  facet normal 0 0 1
    outer loop
      vertex 3.19098 39.5489 1
      vertex 3 4.36602 1
      vertex 3.19098 4.45106 1
    endloop
  endfacet
  facet normal 0 0 1
    outer loop
      vertex 3 39.634 1
      vertex 3 4.36602 1
      vertex 3.19098 39.5489 1
    endloop
  endfacet
  facet normal 0 0 1
    outer loop
      vertex 2.83087 39.7569 1
      vertex 3 4.36602 1
      vertex 3 39.634 1
    endloop
  endfacet
  facet normal 0 0 1
    outer loop
      vertex 2.83087 39.7569 1
      vertex 2.83087 4.24314 1
      vertex 3 4.36602 1
    endloop
  endfacet
  facet normal 0 0 1
    outer loop
      vertex 2.69098 39.9122 1
      vertex 2.83087 4.24314 1
      vertex 2.83087 39.7569 1
    endloop
  endfacet
  facet normal 0 0 1
    outer loop
      vertex 2.69098 39.9122 1
      vertex 2.69098 4.08778 1
      vertex 2.83087 4.24314 1
    endloop
  endfacet
  facet normal 0 0 1
    outer loop
      vertex 2.58645 40.0933 1
      vertex 2.69098 4.08778 1
      vertex 2.69098 39.9122 1
    endloop
  endfacet
  facet normal 0 0 1
    outer loop
      vertex 2.58645 40.0933 1
      vertex 2.58645 3.90674 1
      vertex 2.69098 4.08778 1
    endloop
  endfacet
  facet normal 0 0 1
    outer loop
      vertex 0.75 43.25 1
      vertex 2.58645 40.0933 1
      vertex 2.52185 40.2921 1
    endloop
  endfacet
  facet normal 0 0 1
    outer loop
      vertex 2.58645 40.0933 1
      vertex 0.75 43.25 1
      vertex 2.58645 3.90674 1
    endloop
  endfacet
  facet normal 0 0 1
    outer loop
      vertex 0.75 43.25 1
      vertex 2.52185 40.2921 1
      vertex 2.5 40.5 1
    endloop
  endfacet
  facet normal 0 0 1
    outer loop
      vertex 0.75 0.75 1
      vertex 2.58645 3.90674 1
      vertex 0.75 43.25 1
    endloop
  endfacet
  facet normal -0 0 1
    outer loop
      vertex 45.309 39.9122 1
      vertex 46.5 39.6 1
      vertex 45.4135 40.0933 1
    endloop
  endfacet
  facet normal 0 0 1
    outer loop
      vertex 46.5 4.4 1
      vertex 45.4781 3.70791 1
      vertex 45.5 3.5 1
    endloop
  endfacet
  facet normal -0 0 1
    outer loop
      vertex 45.1691 39.7569 1
      vertex 46.5 39.6 1
      vertex 45.309 39.9122 1
    endloop
  endfacet
  facet normal 0 0 1
    outer loop
      vertex 46.5 4.4 1
      vertex 45.4135 3.90674 1
      vertex 45.4781 3.70791 1
    endloop
  endfacet
  facet normal -0 0 1
    outer loop
      vertex 45 39.634 1
      vertex 46.5 39.6 1
      vertex 45.1691 39.7569 1
    endloop
  endfacet
  facet normal 0 0 1
    outer loop
      vertex 46.5 4.4 1
      vertex 45.309 4.08778 1
      vertex 45.4135 3.90674 1
    endloop
  endfacet
  facet normal 0 0 1
    outer loop
      vertex 44.809 39.5489 1
      vertex 46.5 39.6 1
      vertex 45 39.634 1
    endloop
  endfacet
  facet normal 0 0 1
    outer loop
      vertex 46.5 4.4 1
      vertex 45.1691 4.24314 1
      vertex 45.309 4.08778 1
    endloop
  endfacet
  facet normal 0 0 1
    outer loop
      vertex 44.6045 39.5055 1
      vertex 46.5 39.6 1
      vertex 44.809 39.5489 1
    endloop
  endfacet
  facet normal 0 0 1
    outer loop
      vertex 46.5 4.4 1
      vertex 45 4.36602 1
      vertex 45.1691 4.24314 1
    endloop
  endfacet
  facet normal 0 0 1
    outer loop
      vertex 46.5 39.6 1
      vertex 44.6045 39.5055 1
      vertex 46.5 4.4 1
    endloop
  endfacet
  facet normal 0 0 1
    outer loop
      vertex 46.5 4.4 1
      vertex 44.809 4.45106 1
      vertex 45 4.36602 1
    endloop
  endfacet
  facet normal -0 0 1
    outer loop
      vertex 44.6045 4.49452 1
      vertex 46.5 4.4 1
      vertex 44.6045 39.5055 1
    endloop
  endfacet
  facet normal 0 0 1
    outer loop
      vertex 46.5 4.4 1
      vertex 44.6045 4.49452 1
      vertex 44.809 4.45106 1
    endloop
  endfacet
  facet normal -0 0 1
    outer loop
      vertex 44.3955 39.5055 1
      vertex 44.6045 4.49452 1
      vertex 44.6045 39.5055 1
    endloop
  endfacet
  facet normal 0 0 1
    outer loop
      vertex 44.3955 39.5055 1
      vertex 44.3955 4.49452 1
      vertex 44.6045 4.49452 1
    endloop
  endfacet
  facet normal 0 0 1
    outer loop
      vertex 44.191 39.5489 1
      vertex 44.3955 4.49452 1
      vertex 44.3955 39.5055 1
    endloop
  endfacet
  facet normal 0 0 1
    outer loop
      vertex 44.191 39.5489 1
      vertex 44.191 4.45106 1
      vertex 44.3955 4.49452 1
    endloop
  endfacet
  facet normal 0 0 1
    outer loop
      vertex 44 39.634 1
      vertex 44.191 4.45106 1
      vertex 44.191 39.5489 1
    endloop
  endfacet
  facet normal 0 0 1
    outer loop
      vertex 44 39.634 1
      vertex 44 4.36602 1
      vertex 44.191 4.45106 1
    endloop
  endfacet
  facet normal 0 0 1
    outer loop
      vertex 43.8309 39.7569 1
      vertex 44 4.36602 1
      vertex 44 39.634 1
    endloop
  endfacet
  facet normal 0 0 1
    outer loop
      vertex 43.8309 39.7569 1
      vertex 43.8309 4.24314 1
      vertex 44 4.36602 1
    endloop
  endfacet
  facet normal 0 0 1
    outer loop
      vertex 43.691 39.9122 1
      vertex 43.8309 4.24314 1
      vertex 43.8309 39.7569 1
    endloop
  endfacet
  facet normal 0 0 1
    outer loop
      vertex 43.691 39.9122 1
      vertex 43.691 4.08778 1
      vertex 43.8309 4.24314 1
    endloop
  endfacet
  facet normal 0 0 1
    outer loop
      vertex 43.5219 40.2921 1
      vertex 4.47815 40.2921 1
      vertex 43.5865 40.0933 1
    endloop
  endfacet
  facet normal 0 0 1
    outer loop
      vertex 4.41354 40.0933 1
      vertex 43.5865 40.0933 1
      vertex 4.47815 40.2921 1
    endloop
  endfacet
  facet normal 0 0 1
    outer loop
      vertex 4.47815 40.2921 1
      vertex 43.5219 40.2921 1
      vertex 4.5 40.5 1
    endloop
  endfacet
  facet normal 0 0 1
    outer loop
      vertex 43.5865 40.0933 1
      vertex 4.41354 40.0933 1
      vertex 43.691 39.9122 1
    endloop
  endfacet
  facet normal -0 0 1
    outer loop
      vertex 4.5 40.5 1
      vertex 43.5219 40.2921 1
      vertex 43.5 40.5 1
    endloop
  endfacet
  facet normal 0 0 1
    outer loop
      vertex 43.691 4.08778 1
      vertex 4.5 3.5 1
      vertex 43.5865 3.90674 1
    endloop
  endfacet
  facet normal 0 0 1
    outer loop
      vertex 69.5 43.25 1
      vertex 46.5 42.1 1
      vertex 69.5 42.1 1
    endloop
  endfacet
  facet normal -0 0 1
    outer loop
      vertex 45.4781 40.7079 1
      vertex 46.5 39.6 1
      vertex 46.5 42.1 1
    endloop
  endfacet
  facet normal -0 0 1
    outer loop
      vertex 45.4781 40.2921 1
      vertex 46.5 39.6 1
      vertex 45.5 40.5 1
    endloop
  endfacet
  facet normal -0 0 1
    outer loop
      vertex 45.4135 40.0933 1
      vertex 46.5 39.6 1
      vertex 45.4781 40.2921 1
    endloop
  endfacet
  facet normal 0 0 1
    outer loop
      vertex 46.5 39.6 1
      vertex 45.4781 40.7079 1
      vertex 45.5 40.5 1
    endloop
  endfacet
  facet normal 0 0 1
    outer loop
      vertex 46.5 42.1 1
      vertex 45.4135 40.9067 1
      vertex 45.4781 40.7079 1
    endloop
  endfacet
  facet normal 0 0 1
    outer loop
      vertex 46.5 42.1 1
      vertex 45.309 41.0878 1
      vertex 45.4135 40.9067 1
    endloop
  endfacet
  facet normal 0 0 1
    outer loop
      vertex 46.5 42.1 1
      vertex 45.1691 41.2431 1
      vertex 45.309 41.0878 1
    endloop
  endfacet
  facet normal 0 0 1
    outer loop
      vertex 46.5 42.1 1
      vertex 45 41.366 1
      vertex 45.1691 41.2431 1
    endloop
  endfacet
  facet normal 0 0 1
    outer loop
      vertex 46.5 42.1 1
      vertex 44.809 41.4511 1
      vertex 45 41.366 1
    endloop
  endfacet
  facet normal 0 0 1
    outer loop
      vertex 46.5 42.1 1
      vertex 44.6045 41.4945 1
      vertex 44.809 41.4511 1
    endloop
  endfacet
  facet normal 0 0 1
    outer loop
      vertex 46.5 42.1 1
      vertex 44.3955 41.4945 1
      vertex 44.6045 41.4945 1
    endloop
  endfacet
  facet normal 0 0 1
    outer loop
      vertex 46.5 42.1 1
      vertex 44.191 41.4511 1
      vertex 44.3955 41.4945 1
    endloop
  endfacet
  facet normal 0 0 1
    outer loop
      vertex 43.5865 3.90674 1
      vertex 4.5 3.5 1
      vertex 43.5219 3.70791 1
    endloop
  endfacet
  facet normal 0 0 1
    outer loop
      vertex 43.5219 40.7079 1
      vertex 4.5 40.5 1
      vertex 43.5 40.5 1
    endloop
  endfacet
  facet normal 0 0 1
    outer loop
      vertex 4.47815 40.7079 1
      vertex 43.5219 40.7079 1
      vertex 43.5865 40.9067 1
    endloop
  endfacet
  facet normal 0 0 1
    outer loop
      vertex 4.41354 40.9067 1
      vertex 43.5865 40.9067 1
      vertex 43.691 41.0878 1
    endloop
  endfacet
  facet normal 0 0 1
    outer loop
      vertex 4.30902 41.0878 1
      vertex 43.691 41.0878 1
      vertex 43.8309 41.2431 1
    endloop
  endfacet
  facet normal 0 0 1
    outer loop
      vertex 4.16913 41.2431 1
      vertex 43.8309 41.2431 1
      vertex 44 41.366 1
    endloop
  endfacet
  facet normal 0 0 1
    outer loop
      vertex 0.75 43.25 1
      vertex 44 41.366 1
      vertex 44.191 41.4511 1
    endloop
  endfacet
  facet normal 0 0 1
    outer loop
      vertex 0.75 43.25 1
      vertex 44.191 41.4511 1
      vertex 46.5 42.1 1
    endloop
  endfacet
  facet normal -0 0 1
    outer loop
      vertex 0.75 43.25 1
      vertex 46.5 42.1 1
      vertex 69.5 43.25 1
    endloop
  endfacet
  facet normal 0 0 1
    outer loop
      vertex 43.5219 40.7079 1
      vertex 4.47815 40.7079 1
      vertex 4.5 40.5 1
    endloop
  endfacet
  facet normal 0 0 1
    outer loop
      vertex 43.5865 40.9067 1
      vertex 4.41354 40.9067 1
      vertex 4.47815 40.7079 1
    endloop
  endfacet
  facet normal 0 0 1
    outer loop
      vertex 43.691 41.0878 1
      vertex 4.30902 41.0878 1
      vertex 4.41354 40.9067 1
    endloop
  endfacet
  facet normal 0 0 1
    outer loop
      vertex 43.8309 41.2431 1
      vertex 4.16913 41.2431 1
      vertex 4.30902 41.0878 1
    endloop
  endfacet
  facet normal 0 0 1
    outer loop
      vertex 44 41.366 1
      vertex 4 41.366 1
      vertex 4.16913 41.2431 1
    endloop
  endfacet
  facet normal 0 0 1
    outer loop
      vertex 44 41.366 1
      vertex 0.75 43.25 1
      vertex 4 41.366 1
    endloop
  endfacet
  facet normal 0 0 1
    outer loop
      vertex 4 41.366 1
      vertex 0.75 43.25 1
      vertex 3.80902 41.4511 1
    endloop
  endfacet
  facet normal 0 0 1
    outer loop
      vertex 3.80902 41.4511 1
      vertex 0.75 43.25 1
      vertex 3.60453 41.4945 1
    endloop
  endfacet
  facet normal 0 0 1
    outer loop
      vertex 2.58645 3.90674 1
      vertex 0.75 0.75 1
      vertex 2.52185 3.70791 1
    endloop
  endfacet
  facet normal 0 0 1
    outer loop
      vertex 2.52185 40.7079 1
      vertex 0.75 43.25 1
      vertex 2.5 40.5 1
    endloop
  endfacet
  facet normal 0 0 1
    outer loop
      vertex 2.58645 40.9067 1
      vertex 0.75 43.25 1
      vertex 2.52185 40.7079 1
    endloop
  endfacet
  facet normal 0 0 1
    outer loop
      vertex 2.69098 41.0878 1
      vertex 0.75 43.25 1
      vertex 2.58645 40.9067 1
    endloop
  endfacet
  facet normal 0 0 1
    outer loop
      vertex 2.83087 41.2431 1
      vertex 0.75 43.25 1
      vertex 2.69098 41.0878 1
    endloop
  endfacet
  facet normal 0 0 1
    outer loop
      vertex 3 41.366 1
      vertex 0.75 43.25 1
      vertex 2.83087 41.2431 1
    endloop
  endfacet
  facet normal 0 0 1
    outer loop
      vertex 3.19098 41.4511 1
      vertex 0.75 43.25 1
      vertex 3 41.366 1
    endloop
  endfacet
  facet normal 0 0 1
    outer loop
      vertex 3.39547 41.4945 1
      vertex 0.75 43.25 1
      vertex 3.19098 41.4511 1
    endloop
  endfacet
  facet normal 0 0 1
    outer loop
      vertex 3.60453 41.4945 1
      vertex 0.75 43.25 1
      vertex 3.39547 41.4945 1
    endloop
  endfacet
  facet normal -0 0 1
    outer loop
      vertex 46.5 1.9 1
      vertex 69.5 0.75 1
      vertex 69.5 1.9 1
    endloop
  endfacet
  facet normal 0 0 1
    outer loop
      vertex 45.4781 3.29209 1
      vertex 46.5 4.4 1
      vertex 45.5 3.5 1
    endloop
  endfacet
  facet normal 0 0 1
    outer loop
      vertex 46.5 4.4 1
      vertex 45.4781 3.29209 1
      vertex 46.5 1.9 1
    endloop
  endfacet
  facet normal -0 0 1
    outer loop
      vertex 45.4135 3.09326 1
      vertex 46.5 1.9 1
      vertex 45.4781 3.29209 1
    endloop
  endfacet
  facet normal -0 0 1
    outer loop
      vertex 45.309 2.91221 1
      vertex 46.5 1.9 1
      vertex 45.4135 3.09326 1
    endloop
  endfacet
  facet normal -0 0 1
    outer loop
      vertex 45.1691 2.75686 1
      vertex 46.5 1.9 1
      vertex 45.309 2.91221 1
    endloop
  endfacet
  facet normal -0 0 1
    outer loop
      vertex 45 2.63397 1
      vertex 46.5 1.9 1
      vertex 45.1691 2.75686 1
    endloop
  endfacet
  facet normal -0 0 1
    outer loop
      vertex 44.809 2.54894 1
      vertex 46.5 1.9 1
      vertex 45 2.63397 1
    endloop
  endfacet
  facet normal -0 0 1
    outer loop
      vertex 44.6045 2.50548 1
      vertex 46.5 1.9 1
      vertex 44.809 2.54894 1
    endloop
  endfacet
  facet normal -0 0 1
    outer loop
      vertex 44.3955 2.50548 1
      vertex 46.5 1.9 1
      vertex 44.6045 2.50548 1
    endloop
  endfacet
  facet normal 0 0 1
    outer loop
      vertex 44.191 2.54894 1
      vertex 46.5 1.9 1
      vertex 44.3955 2.50548 1
    endloop
  endfacet
  facet normal 0 0 1
    outer loop
      vertex 43.5219 3.70791 1
      vertex 4.5 3.5 1
      vertex 43.5 3.5 1
    endloop
  endfacet
  facet normal 0 0 1
    outer loop
      vertex 43.5 3.5 1
      vertex 4.5 3.5 1
      vertex 43.5219 3.29209 1
    endloop
  endfacet
  facet normal 0 0 1
    outer loop
      vertex 4.47815 3.29209 1
      vertex 43.5219 3.29209 1
      vertex 4.5 3.5 1
    endloop
  endfacet
  facet normal 0 0 1
    outer loop
      vertex 43.5219 3.29209 1
      vertex 4.47815 3.29209 1
      vertex 43.5865 3.09326 1
    endloop
  endfacet
  facet normal 0 0 1
    outer loop
      vertex 4.41354 3.09326 1
      vertex 43.5865 3.09326 1
      vertex 4.47815 3.29209 1
    endloop
  endfacet
  facet normal 0 0 1
    outer loop
      vertex 43.5865 3.09326 1
      vertex 4.41354 3.09326 1
      vertex 43.691 2.91221 1
    endloop
  endfacet
  facet normal 0 0 1
    outer loop
      vertex 4.30902 2.91221 1
      vertex 43.691 2.91221 1
      vertex 4.41354 3.09326 1
    endloop
  endfacet
  facet normal 0 0 1
    outer loop
      vertex 43.691 2.91221 1
      vertex 4.30902 2.91221 1
      vertex 43.8309 2.75686 1
    endloop
  endfacet
  facet normal 0 0 1
    outer loop
      vertex 4.16913 2.75686 1
      vertex 43.8309 2.75686 1
      vertex 4.30902 2.91221 1
    endloop
  endfacet
  facet normal 0 0 1
    outer loop
      vertex 43.8309 2.75686 1
      vertex 4.16913 2.75686 1
      vertex 44 2.63397 1
    endloop
  endfacet
  facet normal 0 0 1
    outer loop
      vertex 4 2.63397 1
      vertex 44 2.63397 1
      vertex 4.16913 2.75686 1
    endloop
  endfacet
  facet normal 0 0 1
    outer loop
      vertex 0.75 0.75 1
      vertex 44 2.63397 1
      vertex 4 2.63397 1
    endloop
  endfacet
  facet normal 0 0 1
    outer loop
      vertex 44 2.63397 1
      vertex 0.75 0.75 1
      vertex 44.191 2.54894 1
    endloop
  endfacet
  facet normal 0 0 1
    outer loop
      vertex 44.191 2.54894 1
      vertex 0.75 0.75 1
      vertex 46.5 1.9 1
    endloop
  endfacet
  facet normal 0 0 1
    outer loop
      vertex 0.75 0.75 1
      vertex 4 2.63397 1
      vertex 3.80902 2.54894 1
    endloop
  endfacet
  facet normal 0 0 1
    outer loop
      vertex 0.75 0.75 1
      vertex 3.80902 2.54894 1
      vertex 3.60453 2.50548 1
    endloop
  endfacet
  facet normal 0 0 1
    outer loop
      vertex 0.75 0.75 1
      vertex 3.60453 2.50548 1
      vertex 3.39547 2.50548 1
    endloop
  endfacet
  facet normal 0 0 1
    outer loop
      vertex 46.5 1.9 1
      vertex 0.75 0.75 1
      vertex 69.5 0.75 1
    endloop
  endfacet
  facet normal 0 0 1
    outer loop
      vertex 3.19098 2.54894 1
      vertex 0.75 0.75 1
      vertex 3.39547 2.50548 1
    endloop
  endfacet
  facet normal 0 0 1
    outer loop
      vertex 3 2.63397 1
      vertex 0.75 0.75 1
      vertex 3.19098 2.54894 1
    endloop
  endfacet
  facet normal 0 0 1
    outer loop
      vertex 2.83087 2.75686 1
      vertex 0.75 0.75 1
      vertex 3 2.63397 1
    endloop
  endfacet
  facet normal 0 0 1
    outer loop
      vertex 2.69098 2.91221 1
      vertex 0.75 0.75 1
      vertex 2.83087 2.75686 1
    endloop
  endfacet
  facet normal 0 0 1
    outer loop
      vertex 2.58645 3.09326 1
      vertex 0.75 0.75 1
      vertex 2.69098 2.91221 1
    endloop
  endfacet
  facet normal 0 0 1
    outer loop
      vertex 2.52185 3.29209 1
      vertex 0.75 0.75 1
      vertex 2.58645 3.09326 1
    endloop
  endfacet
  facet normal 0 0 1
    outer loop
      vertex 2.5 3.5 1
      vertex 0.75 0.75 1
      vertex 2.52185 3.29209 1
    endloop
  endfacet
  facet normal 0 0 1
    outer loop
      vertex 2.52185 3.70791 1
      vertex 0.75 0.75 1
      vertex 2.5 3.5 1
    endloop
  endfacet
  facet normal 1 0 0
    outer loop
      vertex 69.5 4.4 19
      vertex 69.5 1.9 19
      vertex 69.5 4.4 1
    endloop
  endfacet
  facet normal 1 0 0
    outer loop
      vertex 69.5 42.1 19
      vertex 69.5 39.6 19
      vertex 69.5 42.1 1
    endloop
  endfacet
  facet normal 1 -0 0
    outer loop
      vertex 69.5 42.1 1
      vertex 69.5 43.25 0
      vertex 69.5 43.25 1
    endloop
  endfacet
  facet normal 1 0 0
    outer loop
      vertex 69.5 39.6 1
      vertex 69.5 42.1 1
      vertex 69.5 39.6 19
    endloop
  endfacet
  facet normal 1 -0 0
    outer loop
      vertex 69.5 39.6 1
      vertex 69.5 43.25 0
      vertex 69.5 42.1 1
    endloop
  endfacet
  facet normal 1 -0 0
    outer loop
      vertex 69.5 4.4 1
      vertex 69.5 43.25 0
      vertex 69.5 39.6 1
    endloop
  endfacet
  facet normal 1 0 0
    outer loop
      vertex 69.5 1.9 1
      vertex 69.5 4.4 1
      vertex 69.5 1.9 19
    endloop
  endfacet
  facet normal 1 0 0
    outer loop
      vertex 69.5 0.75 0
      vertex 69.5 4.4 1
      vertex 69.5 1.9 1
    endloop
  endfacet
  facet normal 1 0 0
    outer loop
      vertex 69.5 0.75 0
      vertex 69.5 1.9 1
      vertex 69.5 0.75 1
    endloop
  endfacet
  facet normal 1 0 0
    outer loop
      vertex 69.5 4.4 1
      vertex 69.5 0.75 0
      vertex 69.5 43.25 0
    endloop
  endfacet
  facet normal 0 0 -1
    outer loop
      vertex 4.30902 4.08778 0
      vertex 43.691 4.08778 0
      vertex 4.41354 3.90674 0
    endloop
  endfacet
  facet normal 0 0 -1
    outer loop
      vertex 43.691 39.9122 0
      vertex 4.47815 40.2921 0
      vertex 4.5 40.5 0
    endloop
  endfacet
  facet normal 0 0 -1
    outer loop
      vertex 43.691 4.08778 0
      vertex 4.30902 4.08778 0
      vertex 43.691 39.9122 0
    endloop
  endfacet
  facet normal 0 0 -1
    outer loop
      vertex 43.691 39.9122 0
      vertex 4.41354 40.0933 0
      vertex 4.47815 40.2921 0
    endloop
  endfacet
  facet normal 0 0 -1
    outer loop
      vertex 4.30902 39.9122 0
      vertex 43.691 39.9122 0
      vertex 4.30902 4.08778 0
    endloop
  endfacet
  facet normal 0 0 -1
    outer loop
      vertex 43.691 39.9122 0
      vertex 4.30902 39.9122 0
      vertex 4.41354 40.0933 0
    endloop
  endfacet
  facet normal 0 0 -1
    outer loop
      vertex 4.16913 4.24314 0
      vertex 4.30902 39.9122 0
      vertex 4.30902 4.08778 0
    endloop
  endfacet
  facet normal 0 0 -1
    outer loop
      vertex 4.16913 4.24314 0
      vertex 4.16913 39.7569 0
      vertex 4.30902 39.9122 0
    endloop
  endfacet
  facet normal 0 0 -1
    outer loop
      vertex 4 4.36602 0
      vertex 4.16913 39.7569 0
      vertex 4.16913 4.24314 0
    endloop
  endfacet
  facet normal 0 0 -1
    outer loop
      vertex 4 4.36602 0
      vertex 4 39.634 0
      vertex 4.16913 39.7569 0
    endloop
  endfacet
  facet normal 0 0 -1
    outer loop
      vertex 3.80902 4.45106 0
      vertex 4 39.634 0
      vertex 4 4.36602 0
    endloop
  endfacet
  facet normal 0 0 -1
    outer loop
      vertex 3.80902 4.45106 0
      vertex 3.80902 39.5489 0
      vertex 4 39.634 0
    endloop
  endfacet
  facet normal 0 0 -1
    outer loop
      vertex 3.60453 4.49452 0
      vertex 3.80902 39.5489 0
      vertex 3.80902 4.45106 0
    endloop
  endfacet
  facet normal 0 0 -1
    outer loop
      vertex 3.60453 4.49452 0
      vertex 3.60453 39.5055 0
      vertex 3.80902 39.5489 0
    endloop
  endfacet
  facet normal 0 0 -1
    outer loop
      vertex 3.39547 4.49452 0
      vertex 3.60453 39.5055 0
      vertex 3.60453 4.49452 0
    endloop
  endfacet
  facet normal 0 0 -1
    outer loop
      vertex 3.39547 4.49452 0
      vertex 3.39547 39.5055 0
      vertex 3.60453 39.5055 0
    endloop
  endfacet
  facet normal 0 0 -1
    outer loop
      vertex 3.19098 4.45106 0
      vertex 3.39547 39.5055 0
      vertex 3.39547 4.49452 0
    endloop
  endfacet
  facet normal 0 0 -1
    outer loop
      vertex 3.19098 4.45106 0
      vertex 3.19098 39.5489 0
      vertex 3.39547 39.5055 0
    endloop
  endfacet
  facet normal 0 0 -1
    outer loop
      vertex 3 4.36602 0
      vertex 3.19098 39.5489 0
      vertex 3.19098 4.45106 0
    endloop
  endfacet
  facet normal 0 0 -1
    outer loop
      vertex 3 4.36602 0
      vertex 3 39.634 0
      vertex 3.19098 39.5489 0
    endloop
  endfacet
  facet normal 0 0 -1
    outer loop
      vertex 2.83087 4.24314 0
      vertex 3 39.634 0
      vertex 3 4.36602 0
    endloop
  endfacet
  facet normal 0 0 -1
    outer loop
      vertex 2.83087 4.24314 0
      vertex 2.83087 39.7569 0
      vertex 3 39.634 0
    endloop
  endfacet
  facet normal 0 0 -1
    outer loop
      vertex 2.69098 4.08778 0
      vertex 2.83087 39.7569 0
      vertex 2.83087 4.24314 0
    endloop
  endfacet
  facet normal 0 0 -1
    outer loop
      vertex 2.69098 4.08778 0
      vertex 2.69098 39.9122 0
      vertex 2.83087 39.7569 0
    endloop
  endfacet
  facet normal 0 0 -1
    outer loop
      vertex 2.58645 3.90674 0
      vertex 2.69098 39.9122 0
      vertex 2.69098 4.08778 0
    endloop
  endfacet
  facet normal 0 0 -1
    outer loop
      vertex 2.58645 3.90674 0
      vertex 2.58645 40.0933 0
      vertex 2.69098 39.9122 0
    endloop
  endfacet
  facet normal 0 0 -1
    outer loop
      vertex 0.75 0.75 0
      vertex 2.58645 3.90674 0
      vertex 2.52185 3.70791 0
    endloop
  endfacet
  facet normal -0 0 -1
    outer loop
      vertex 2.58645 3.90674 0
      vertex 0.75 0.75 0
      vertex 2.58645 40.0933 0
    endloop
  endfacet
  facet normal 0 0 -1
    outer loop
      vertex 0.75 0.75 0
      vertex 2.52185 3.70791 0
      vertex 2.5 3.5 0
    endloop
  endfacet
  facet normal 0 0 -1
    outer loop
      vertex 0.75 43.25 0
      vertex 2.58645 40.0933 0
      vertex 0.75 0.75 0
    endloop
  endfacet
  facet normal 0 0 -1
    outer loop
      vertex 45.309 4.08778 0
      vertex 69.5 0.75 0
      vertex 45.4135 3.90674 0
    endloop
  endfacet
  facet normal 0 0 -1
    outer loop
      vertex 69.5 43.25 0
      vertex 45.4781 40.2921 0
      vertex 45.5 40.5 0
    endloop
  endfacet
  facet normal 0 0 -1
    outer loop
      vertex 45.1691 4.24314 0
      vertex 69.5 0.75 0
      vertex 45.309 4.08778 0
    endloop
  endfacet
  facet normal 0 0 -1
    outer loop
      vertex 69.5 43.25 0
      vertex 45.4135 40.0933 0
      vertex 45.4781 40.2921 0
    endloop
  endfacet
  facet normal 0 0 -1
    outer loop
      vertex 69.5 0.75 0
      vertex 45.1691 4.24314 0
      vertex 69.5 43.25 0
    endloop
  endfacet
  facet normal 0 0 -1
    outer loop
      vertex 69.5 43.25 0
      vertex 45.309 39.9122 0
      vertex 45.4135 40.0933 0
    endloop
  endfacet
  facet normal 0 0 -1
    outer loop
      vertex 45.1691 39.7569 0
      vertex 69.5 43.25 0
      vertex 45.1691 4.24314 0
    endloop
  endfacet
  facet normal 0 0 -1
    outer loop
      vertex 69.5 43.25 0
      vertex 45.1691 39.7569 0
      vertex 45.309 39.9122 0
    endloop
  endfacet
  facet normal 0 0 -1
    outer loop
      vertex 45 4.36602 0
      vertex 45.1691 39.7569 0
      vertex 45.1691 4.24314 0
    endloop
  endfacet
  facet normal 0 0 -1
    outer loop
      vertex 45 4.36602 0
      vertex 45 39.634 0
      vertex 45.1691 39.7569 0
    endloop
  endfacet
  facet normal 0 0 -1
    outer loop
      vertex 44.809 4.45106 0
      vertex 45 39.634 0
      vertex 45 4.36602 0
    endloop
  endfacet
  facet normal 0 0 -1
    outer loop
      vertex 44.809 4.45106 0
      vertex 44.809 39.5489 0
      vertex 45 39.634 0
    endloop
  endfacet
  facet normal 0 0 -1
    outer loop
      vertex 44.6045 4.49452 0
      vertex 44.809 39.5489 0
      vertex 44.809 4.45106 0
    endloop
  endfacet
  facet normal 0 0 -1
    outer loop
      vertex 44.6045 4.49452 0
      vertex 44.6045 39.5055 0
      vertex 44.809 39.5489 0
    endloop
  endfacet
  facet normal 0 0 -1
    outer loop
      vertex 44.3955 4.49452 0
      vertex 44.6045 39.5055 0
      vertex 44.6045 4.49452 0
    endloop
  endfacet
  facet normal 0 0 -1
    outer loop
      vertex 44.3955 4.49452 0
      vertex 44.3955 39.5055 0
      vertex 44.6045 39.5055 0
    endloop
  endfacet
  facet normal 0 0 -1
    outer loop
      vertex 44.191 4.45106 0
      vertex 44.3955 39.5055 0
      vertex 44.3955 4.49452 0
    endloop
  endfacet
  facet normal 0 0 -1
    outer loop
      vertex 44.191 4.45106 0
      vertex 44.191 39.5489 0
      vertex 44.3955 39.5055 0
    endloop
  endfacet
  facet normal 0 0 -1
    outer loop
      vertex 44 4.36602 0
      vertex 44.191 39.5489 0
      vertex 44.191 4.45106 0
    endloop
  endfacet
  facet normal 0 0 -1
    outer loop
      vertex 44 4.36602 0
      vertex 44 39.634 0
      vertex 44.191 39.5489 0
    endloop
  endfacet
  facet normal 0 0 -1
    outer loop
      vertex 43.8309 4.24314 0
      vertex 44 39.634 0
      vertex 44 4.36602 0
    endloop
  endfacet
  facet normal 0 0 -1
    outer loop
      vertex 43.8309 4.24314 0
      vertex 43.8309 39.7569 0
      vertex 44 39.634 0
    endloop
  endfacet
  facet normal 0 0 -1
    outer loop
      vertex 43.691 4.08778 0
      vertex 43.8309 39.7569 0
      vertex 43.8309 4.24314 0
    endloop
  endfacet
  facet normal 0 0 -1
    outer loop
      vertex 43.691 4.08778 0
      vertex 43.691 39.9122 0
      vertex 43.8309 39.7569 0
    endloop
  endfacet
  facet normal 0 0 -1
    outer loop
      vertex 43.5219 3.70791 0
      vertex 4.47815 3.70791 0
      vertex 43.5865 3.90674 0
    endloop
  endfacet
  facet normal 0 0 -1
    outer loop
      vertex 4.41354 3.90674 0
      vertex 43.5865 3.90674 0
      vertex 4.47815 3.70791 0
    endloop
  endfacet
  facet normal 0 0 -1
    outer loop
      vertex 4.47815 3.70791 0
      vertex 43.5219 3.70791 0
      vertex 4.5 3.5 0
    endloop
  endfacet
  facet normal 0 0 -1
    outer loop
      vertex 43.5865 3.90674 0
      vertex 4.41354 3.90674 0
      vertex 43.691 4.08778 0
    endloop
  endfacet
  facet normal 0 0 -1
    outer loop
      vertex 4.5 3.5 0
      vertex 43.5219 3.70791 0
      vertex 43.5 3.5 0
    endloop
  endfacet
  facet normal 0 0 -1
    outer loop
      vertex 43.691 39.9122 0
      vertex 4.5 40.5 0
      vertex 43.5865 40.0933 0
    endloop
  endfacet
  facet normal 0 0 -1
    outer loop
      vertex 45.4781 3.70791 0
      vertex 69.5 0.75 0
      vertex 45.5 3.5 0
    endloop
  endfacet
  facet normal 0 0 -1
    outer loop
      vertex 69.5 0.75 0
      vertex 45.4781 3.29209 0
      vertex 45.5 3.5 0
    endloop
  endfacet
  facet normal 0 0 -1
    outer loop
      vertex 69.5 0.75 0
      vertex 45.4135 3.09326 0
      vertex 45.4781 3.29209 0
    endloop
  endfacet
  facet normal 0 0 -1
    outer loop
      vertex 69.5 0.75 0
      vertex 45.309 2.91221 0
      vertex 45.4135 3.09326 0
    endloop
  endfacet
  facet normal 0 0 -1
    outer loop
      vertex 69.5 0.75 0
      vertex 45.1691 2.75686 0
      vertex 45.309 2.91221 0
    endloop
  endfacet
  facet normal 0 0 -1
    outer loop
      vertex 69.5 0.75 0
      vertex 45 2.63397 0
      vertex 45.1691 2.75686 0
    endloop
  endfacet
  facet normal 0 0 -1
    outer loop
      vertex 69.5 0.75 0
      vertex 44.809 2.54894 0
      vertex 45 2.63397 0
    endloop
  endfacet
  facet normal 0 0 -1
    outer loop
      vertex 69.5 0.75 0
      vertex 44.6045 2.50548 0
      vertex 44.809 2.54894 0
    endloop
  endfacet
  facet normal 0 0 -1
    outer loop
      vertex 69.5 0.75 0
      vertex 44.3955 2.50548 0
      vertex 44.6045 2.50548 0
    endloop
  endfacet
  facet normal 0 0 -1
    outer loop
      vertex 43.5865 40.0933 0
      vertex 4.5 40.5 0
      vertex 43.5219 40.2921 0
    endloop
  endfacet
  facet normal 0 0 -1
    outer loop
      vertex 43.5219 3.29209 0
      vertex 4.5 3.5 0
      vertex 43.5 3.5 0
    endloop
  endfacet
  facet normal 0 0 -1
    outer loop
      vertex 4.47815 3.29209 0
      vertex 43.5219 3.29209 0
      vertex 43.5865 3.09326 0
    endloop
  endfacet
  facet normal 0 0 -1
    outer loop
      vertex 4.41354 3.09326 0
      vertex 43.5865 3.09326 0
      vertex 43.691 2.91221 0
    endloop
  endfacet
  facet normal 0 0 -1
    outer loop
      vertex 4.30902 2.91221 0
      vertex 43.691 2.91221 0
      vertex 43.8309 2.75686 0
    endloop
  endfacet
  facet normal 0 0 -1
    outer loop
      vertex 4.16913 2.75686 0
      vertex 43.8309 2.75686 0
      vertex 44 2.63397 0
    endloop
  endfacet
  facet normal 0 0 -1
    outer loop
      vertex 0.75 0.75 0
      vertex 44 2.63397 0
      vertex 44.191 2.54894 0
    endloop
  endfacet
  facet normal 0 0 -1
    outer loop
      vertex 0.75 0.75 0
      vertex 44.191 2.54894 0
      vertex 44.3955 2.50548 0
    endloop
  endfacet
  facet normal 0 0 -1
    outer loop
      vertex 0.75 0.75 0
      vertex 44.3955 2.50548 0
      vertex 69.5 0.75 0
    endloop
  endfacet
  facet normal 0 0 -1
    outer loop
      vertex 43.5219 3.29209 0
      vertex 4.47815 3.29209 0
      vertex 4.5 3.5 0
    endloop
  endfacet
  facet normal 0 0 -1
    outer loop
      vertex 43.5865 3.09326 0
      vertex 4.41354 3.09326 0
      vertex 4.47815 3.29209 0
    endloop
  endfacet
  facet normal 0 0 -1
    outer loop
      vertex 43.691 2.91221 0
      vertex 4.30902 2.91221 0
      vertex 4.41354 3.09326 0
    endloop
  endfacet
  facet normal 0 0 -1
    outer loop
      vertex 43.8309 2.75686 0
      vertex 4.16913 2.75686 0
      vertex 4.30902 2.91221 0
    endloop
  endfacet
  facet normal 0 0 -1
    outer loop
      vertex 44 2.63397 0
      vertex 4 2.63397 0
      vertex 4.16913 2.75686 0
    endloop
  endfacet
  facet normal -0 0 -1
    outer loop
      vertex 44 2.63397 0
      vertex 0.75 0.75 0
      vertex 4 2.63397 0
    endloop
  endfacet
  facet normal 0 0 -1
    outer loop
      vertex 4 2.63397 0
      vertex 0.75 0.75 0
      vertex 3.80902 2.54894 0
    endloop
  endfacet
  facet normal 0 0 -1
    outer loop
      vertex 3.80902 2.54894 0
      vertex 0.75 0.75 0
      vertex 3.60453 2.50548 0
    endloop
  endfacet
  facet normal 0 0 -1
    outer loop
      vertex 2.58645 40.0933 0
      vertex 0.75 43.25 0
      vertex 2.52185 40.2921 0
    endloop
  endfacet
  facet normal -0 0 -1
    outer loop
      vertex 2.52185 3.29209 0
      vertex 0.75 0.75 0
      vertex 2.5 3.5 0
    endloop
  endfacet
  facet normal -0 0 -1
    outer loop
      vertex 2.58645 3.09326 0
      vertex 0.75 0.75 0
      vertex 2.52185 3.29209 0
    endloop
  endfacet
  facet normal -0 0 -1
    outer loop
      vertex 2.69098 2.91221 0
      vertex 0.75 0.75 0
      vertex 2.58645 3.09326 0
    endloop
  endfacet
  facet normal -0 0 -1
    outer loop
      vertex 2.83087 2.75686 0
      vertex 0.75 0.75 0
      vertex 2.69098 2.91221 0
    endloop
  endfacet
  facet normal -0 0 -1
    outer loop
      vertex 3 2.63397 0
      vertex 0.75 0.75 0
      vertex 2.83087 2.75686 0
    endloop
  endfacet
  facet normal -0 0 -1
    outer loop
      vertex 3.19098 2.54894 0
      vertex 0.75 0.75 0
      vertex 3 2.63397 0
    endloop
  endfacet
  facet normal -0 0 -1
    outer loop
      vertex 3.39547 2.50548 0
      vertex 0.75 0.75 0
      vertex 3.19098 2.54894 0
    endloop
  endfacet
  facet normal -0 0 -1
    outer loop
      vertex 3.60453 2.50548 0
      vertex 0.75 0.75 0
      vertex 3.39547 2.50548 0
    endloop
  endfacet
  facet normal 0 0 -1
    outer loop
      vertex 45.4135 3.90674 0
      vertex 69.5 0.75 0
      vertex 45.4781 3.70791 0
    endloop
  endfacet
  facet normal 0 0 -1
    outer loop
      vertex 45.4781 40.7079 0
      vertex 69.5 43.25 0
      vertex 45.5 40.5 0
    endloop
  endfacet
  facet normal 0 0 -1
    outer loop
      vertex 45.4135 40.9067 0
      vertex 69.5 43.25 0
      vertex 45.4781 40.7079 0
    endloop
  endfacet
  facet normal 0 0 -1
    outer loop
      vertex 45.309 41.0878 0
      vertex 69.5 43.25 0
      vertex 45.4135 40.9067 0
    endloop
  endfacet
  facet normal 0 0 -1
    outer loop
      vertex 45.1691 41.2431 0
      vertex 69.5 43.25 0
      vertex 45.309 41.0878 0
    endloop
  endfacet
  facet normal 0 0 -1
    outer loop
      vertex 45 41.366 0
      vertex 69.5 43.25 0
      vertex 45.1691 41.2431 0
    endloop
  endfacet
  facet normal 0 0 -1
    outer loop
      vertex 44.809 41.4511 0
      vertex 69.5 43.25 0
      vertex 45 41.366 0
    endloop
  endfacet
  facet normal 0 0 -1
    outer loop
      vertex 44.6045 41.4945 0
      vertex 69.5 43.25 0
      vertex 44.809 41.4511 0
    endloop
  endfacet
  facet normal 0 0 -1
    outer loop
      vertex 44.3955 41.4945 0
      vertex 69.5 43.25 0
      vertex 44.6045 41.4945 0
    endloop
  endfacet
  facet normal 0 0 -1
    outer loop
      vertex 43.5219 40.2921 0
      vertex 4.5 40.5 0
      vertex 43.5 40.5 0
    endloop
  endfacet
  facet normal 0 0 -1
    outer loop
      vertex 43.5 40.5 0
      vertex 4.5 40.5 0
      vertex 43.5219 40.7079 0
    endloop
  endfacet
  facet normal 0 0 -1
    outer loop
      vertex 4.47815 40.7079 0
      vertex 43.5219 40.7079 0
      vertex 4.5 40.5 0
    endloop
  endfacet
  facet normal 0 0 -1
    outer loop
      vertex 43.5219 40.7079 0
      vertex 4.47815 40.7079 0
      vertex 43.5865 40.9067 0
    endloop
  endfacet
  facet normal 0 0 -1
    outer loop
      vertex 4.41354 40.9067 0
      vertex 43.5865 40.9067 0
      vertex 4.47815 40.7079 0
    endloop
  endfacet
  facet normal 0 0 -1
    outer loop
      vertex 43.5865 40.9067 0
      vertex 4.41354 40.9067 0
      vertex 43.691 41.0878 0
    endloop
  endfacet
  facet normal 0 0 -1
    outer loop
      vertex 4.30902 41.0878 0
      vertex 43.691 41.0878 0
      vertex 4.41354 40.9067 0
    endloop
  endfacet
  facet normal 0 0 -1
    outer loop
      vertex 43.691 41.0878 0
      vertex 4.30902 41.0878 0
      vertex 43.8309 41.2431 0
    endloop
  endfacet
  facet normal 0 0 -1
    outer loop
      vertex 4.16913 41.2431 0
      vertex 43.8309 41.2431 0
      vertex 4.30902 41.0878 0
    endloop
  endfacet
  facet normal 0 0 -1
    outer loop
      vertex 43.8309 41.2431 0
      vertex 4.16913 41.2431 0
      vertex 44 41.366 0
    endloop
  endfacet
  facet normal 0 0 -1
    outer loop
      vertex 4 41.366 0
      vertex 44 41.366 0
      vertex 4.16913 41.2431 0
    endloop
  endfacet
  facet normal 0 0 -1
    outer loop
      vertex 0.75 43.25 0
      vertex 44 41.366 0
      vertex 4 41.366 0
    endloop
  endfacet
  facet normal 0 0 -1
    outer loop
      vertex 44 41.366 0
      vertex 0.75 43.25 0
      vertex 44.191 41.4511 0
    endloop
  endfacet
  facet normal 0 0 -1
    outer loop
      vertex 44.191 41.4511 0
      vertex 0.75 43.25 0
      vertex 44.3955 41.4945 0
    endloop
  endfacet
  facet normal 0 0 -1
    outer loop
      vertex 0.75 43.25 0
      vertex 4 41.366 0
      vertex 3.80902 41.4511 0
    endloop
  endfacet
  facet normal 0 0 -1
    outer loop
      vertex 0.75 43.25 0
      vertex 3.80902 41.4511 0
      vertex 3.60453 41.4945 0
    endloop
  endfacet
  facet normal 0 0 -1
    outer loop
      vertex 0.75 43.25 0
      vertex 3.60453 41.4945 0
      vertex 3.39547 41.4945 0
    endloop
  endfacet
  facet normal 0 0 -1
    outer loop
      vertex 44.3955 41.4945 0
      vertex 0.75 43.25 0
      vertex 69.5 43.25 0
    endloop
  endfacet
  facet normal 0 0 -1
    outer loop
      vertex 3.19098 41.4511 0
      vertex 0.75 43.25 0
      vertex 3.39547 41.4945 0
    endloop
  endfacet
  facet normal 0 0 -1
    outer loop
      vertex 3 41.366 0
      vertex 0.75 43.25 0
      vertex 3.19098 41.4511 0
    endloop
  endfacet
  facet normal 0 0 -1
    outer loop
      vertex 2.83087 41.2431 0
      vertex 0.75 43.25 0
      vertex 3 41.366 0
    endloop
  endfacet
  facet normal 0 0 -1
    outer loop
      vertex 2.69098 41.0878 0
      vertex 0.75 43.25 0
      vertex 2.83087 41.2431 0
    endloop
  endfacet
  facet normal 0 0 -1
    outer loop
      vertex 2.58645 40.9067 0
      vertex 0.75 43.25 0
      vertex 2.69098 41.0878 0
    endloop
  endfacet
  facet normal 0 0 -1
    outer loop
      vertex 2.52185 40.7079 0
      vertex 0.75 43.25 0
      vertex 2.58645 40.9067 0
    endloop
  endfacet
  facet normal 0 0 -1
    outer loop
      vertex 2.5 40.5 0
      vertex 0.75 43.25 0
      vertex 2.52185 40.7079 0
    endloop
  endfacet
  facet normal 0 0 -1
    outer loop
      vertex 2.52185 40.2921 0
      vertex 0.75 43.25 0
      vertex 2.5 40.5 0
    endloop
  endfacet
  facet normal 0 -1 0
    outer loop
      vertex 0.75 0.75 0
      vertex 69.5 0.75 1
      vertex 0.75 0.75 1
    endloop
  endfacet
  facet normal 0 -1 -0
    outer loop
      vertex 69.5 0.75 1
      vertex 0.75 0.75 0
      vertex 69.5 0.75 0
    endloop
  endfacet
  facet normal 0 1 -0
    outer loop
      vertex 69.5 43.25 0
      vertex 0.75 43.25 1
      vertex 69.5 43.25 1
    endloop
  endfacet
  facet normal 0 1 0
    outer loop
      vertex 0.75 43.25 1
      vertex 69.5 43.25 0
      vertex 0.75 43.25 0
    endloop
  endfacet
  facet normal -1 0 0
    outer loop
      vertex 46.5 1.9 1
      vertex 46.5 4.4 19
      vertex 46.5 4.4 1
    endloop
  endfacet
  facet normal -1 -0 0
    outer loop
      vertex 46.5 4.4 19
      vertex 46.5 1.9 1
      vertex 46.5 1.9 19
    endloop
  endfacet
  facet normal -1 0 0
    outer loop
      vertex 46.5 39.6 1
      vertex 46.5 42.1 19
      vertex 46.5 42.1 1
    endloop
  endfacet
  facet normal -1 -0 0
    outer loop
      vertex 46.5 42.1 19
      vertex 46.5 39.6 1
      vertex 46.5 39.6 19
    endloop
  endfacet
  facet normal -0 0 1
    outer loop
      vertex 46.5 4.4 19
      vertex 69.5 1.9 19
      vertex 69.5 4.4 19
    endloop
  endfacet
  facet normal 0 0 1
    outer loop
      vertex 69.5 1.9 19
      vertex 46.5 4.4 19
      vertex 46.5 1.9 19
    endloop
  endfacet
  facet normal -0 0 1
    outer loop
      vertex 46.5 42.1 19
      vertex 69.5 39.6 19
      vertex 69.5 42.1 19
    endloop
  endfacet
  facet normal 0 0 1
    outer loop
      vertex 69.5 39.6 19
      vertex 46.5 42.1 19
      vertex 46.5 39.6 19
    endloop
  endfacet
  facet normal 0 -1 0
    outer loop
      vertex 46.5 1.9 1
      vertex 69.5 1.9 19
      vertex 46.5 1.9 19
    endloop
  endfacet
  facet normal 0 -1 -0
    outer loop
      vertex 69.5 1.9 19
      vertex 46.5 1.9 1
      vertex 69.5 1.9 1
    endloop
  endfacet
  facet normal 0 1 -0
    outer loop
      vertex 69.5 42.1 1
      vertex 46.5 42.1 19
      vertex 69.5 42.1 19
    endloop
  endfacet
  facet normal 0 1 0
    outer loop
      vertex 46.5 42.1 19
      vertex 69.5 42.1 1
      vertex 46.5 42.1 1
    endloop
  endfacet
  facet normal -0 0 1
    outer loop
      vertex 46.5 39.6 1
      vertex 69.5 4.4 1
      vertex 69.5 39.6 1
    endloop
  endfacet
  facet normal 0 0 1
    outer loop
      vertex 69.5 4.4 1
      vertex 46.5 39.6 1
      vertex 46.5 4.4 1
    endloop
  endfacet
  facet normal 0 1 -0
    outer loop
      vertex 69.5 4.4 1
      vertex 46.5 4.4 19
      vertex 69.5 4.4 19
    endloop
  endfacet
  facet normal 0 1 0
    outer loop
      vertex 46.5 4.4 19
      vertex 69.5 4.4 1
      vertex 46.5 4.4 1
    endloop
  endfacet
  facet normal 0 -1 0
    outer loop
      vertex 46.5 39.6 1
      vertex 69.5 39.6 19
      vertex 46.5 39.6 19
    endloop
  endfacet
  facet normal 0 -1 -0
    outer loop
      vertex 69.5 39.6 19
      vertex 46.5 39.6 1
      vertex 69.5 39.6 1
    endloop
  endfacet
  facet normal -0.866025 -0.5 0
    outer loop
      vertex 4.41354 3.90674 0
      vertex 4.30902 4.08778 1
      vertex 4.30902 4.08778 0
    endloop
  endfacet
  facet normal -0.866025 -0.5 0
    outer loop
      vertex 4.30902 4.08778 1
      vertex 4.41354 3.90674 0
      vertex 4.41354 3.90674 1
    endloop
  endfacet
  facet normal -0.743145 -0.66913 0
    outer loop
      vertex 4.30902 4.08778 0
      vertex 4.16913 4.24314 1
      vertex 4.16913 4.24314 0
    endloop
  endfacet
  facet normal -0.743145 -0.66913 0
    outer loop
      vertex 4.16913 4.24314 1
      vertex 4.30902 4.08778 0
      vertex 4.30902 4.08778 1
    endloop
  endfacet
  facet normal 0 -1 0
    outer loop
      vertex 3.39547 4.49452 0
      vertex 3.60453 4.49452 1
      vertex 3.39547 4.49452 1
    endloop
  endfacet
  facet normal 0 -1 -0
    outer loop
      vertex 3.60453 4.49452 1
      vertex 3.39547 4.49452 0
      vertex 3.60453 4.49452 0
    endloop
  endfacet
  facet normal -0.207909 -0.978148 0
    outer loop
      vertex 3.60453 4.49452 0
      vertex 3.80902 4.45106 1
      vertex 3.60453 4.49452 1
    endloop
  endfacet
  facet normal -0.207909 -0.978148 -0
    outer loop
      vertex 3.80902 4.45106 1
      vertex 3.60453 4.49452 0
      vertex 3.80902 4.45106 0
    endloop
  endfacet
  facet normal 0.587785 -0.809017 0
    outer loop
      vertex 2.83087 4.24314 0
      vertex 3 4.36602 1
      vertex 2.83087 4.24314 1
    endloop
  endfacet
  facet normal 0.587785 -0.809017 0
    outer loop
      vertex 3 4.36602 1
      vertex 2.83087 4.24314 0
      vertex 3 4.36602 0
    endloop
  endfacet
  facet normal -0.994522 0.104529 0
    outer loop
      vertex 4.47815 3.29209 0
      vertex 4.5 3.5 1
      vertex 4.5 3.5 0
    endloop
  endfacet
  facet normal -0.994522 0.104529 0
    outer loop
      vertex 4.5 3.5 1
      vertex 4.47815 3.29209 0
      vertex 4.47815 3.29209 1
    endloop
  endfacet
  facet normal -0.406737 0.913545 0
    outer loop
      vertex 4 2.63397 0
      vertex 3.80902 2.54894 1
      vertex 4 2.63397 1
    endloop
  endfacet
  facet normal -0.406737 0.913545 0
    outer loop
      vertex 3.80902 2.54894 1
      vertex 4 2.63397 0
      vertex 3.80902 2.54894 0
    endloop
  endfacet
  facet normal -0.951055 -0.30902 0
    outer loop
      vertex 4.47815 3.70791 0
      vertex 4.41354 3.90674 1
      vertex 4.41354 3.90674 0
    endloop
  endfacet
  facet normal -0.951055 -0.30902 0
    outer loop
      vertex 4.41354 3.90674 1
      vertex 4.47815 3.70791 0
      vertex 4.47815 3.70791 1
    endloop
  endfacet
  facet normal -0.587787 -0.809016 0
    outer loop
      vertex 4 4.36602 0
      vertex 4.16913 4.24314 1
      vertex 4 4.36602 1
    endloop
  endfacet
  facet normal -0.587787 -0.809016 -0
    outer loop
      vertex 4.16913 4.24314 1
      vertex 4 4.36602 0
      vertex 4.16913 4.24314 0
    endloop
  endfacet
  facet normal 0.207909 -0.978148 0
    outer loop
      vertex 3.19098 4.45106 0
      vertex 3.39547 4.49452 1
      vertex 3.19098 4.45106 1
    endloop
  endfacet
  facet normal 0.207909 -0.978148 0
    outer loop
      vertex 3.39547 4.49452 1
      vertex 3.19098 4.45106 0
      vertex 3.39547 4.49452 0
    endloop
  endfacet
  facet normal -0.406737 -0.913545 0
    outer loop
      vertex 3.80902 4.45106 0
      vertex 4 4.36602 1
      vertex 3.80902 4.45106 1
    endloop
  endfacet
  facet normal -0.406737 -0.913545 -0
    outer loop
      vertex 4 4.36602 1
      vertex 3.80902 4.45106 0
      vertex 4 4.36602 0
    endloop
  endfacet
  facet normal 0.994522 0.104524 0
    outer loop
      vertex 2.52185 3.29209 1
      vertex 2.5 3.5 0
      vertex 2.5 3.5 1
    endloop
  endfacet
  facet normal 0.994522 0.104524 0
    outer loop
      vertex 2.5 3.5 0
      vertex 2.52185 3.29209 1
      vertex 2.52185 3.29209 0
    endloop
  endfacet
  facet normal 0.951055 -0.30902 0
    outer loop
      vertex 2.52185 3.70791 1
      vertex 2.58645 3.90674 0
      vertex 2.58645 3.90674 1
    endloop
  endfacet
  facet normal 0.951055 -0.30902 0
    outer loop
      vertex 2.58645 3.90674 0
      vertex 2.52185 3.70791 1
      vertex 2.52185 3.70791 0
    endloop
  endfacet
  facet normal 0.743145 -0.66913 0
    outer loop
      vertex 2.69098 4.08778 1
      vertex 2.83087 4.24314 0
      vertex 2.83087 4.24314 1
    endloop
  endfacet
  facet normal 0.743145 -0.66913 0
    outer loop
      vertex 2.83087 4.24314 0
      vertex 2.69098 4.08778 1
      vertex 2.69098 4.08778 0
    endloop
  endfacet
  facet normal 0.406739 -0.913545 0
    outer loop
      vertex 3 4.36602 0
      vertex 3.19098 4.45106 1
      vertex 3 4.36602 1
    endloop
  endfacet
  facet normal 0.406739 -0.913545 0
    outer loop
      vertex 3.19098 4.45106 1
      vertex 3 4.36602 0
      vertex 3.19098 4.45106 0
    endloop
  endfacet
  facet normal 0.866025 -0.5 0
    outer loop
      vertex 2.58645 3.90674 1
      vertex 2.69098 4.08778 0
      vertex 2.69098 4.08778 1
    endloop
  endfacet
  facet normal 0.866025 -0.5 0
    outer loop
      vertex 2.69098 4.08778 0
      vertex 2.58645 3.90674 1
      vertex 2.58645 3.90674 0
    endloop
  endfacet
  facet normal -0.994522 -0.104529 0
    outer loop
      vertex 4.5 3.5 0
      vertex 4.47815 3.70791 1
      vertex 4.47815 3.70791 0
    endloop
  endfacet
  facet normal -0.994522 -0.104529 0
    outer loop
      vertex 4.47815 3.70791 1
      vertex 4.5 3.5 0
      vertex 4.5 3.5 1
    endloop
  endfacet
  facet normal -0.743145 0.66913 0
    outer loop
      vertex 4.16913 2.75686 0
      vertex 4.30902 2.91221 1
      vertex 4.30902 2.91221 0
    endloop
  endfacet
  facet normal -0.743145 0.66913 0
    outer loop
      vertex 4.30902 2.91221 1
      vertex 4.16913 2.75686 0
      vertex 4.16913 2.75686 1
    endloop
  endfacet
  facet normal -0.951055 0.30902 0
    outer loop
      vertex 4.41354 3.09326 0
      vertex 4.47815 3.29209 1
      vertex 4.47815 3.29209 0
    endloop
  endfacet
  facet normal -0.951055 0.30902 0
    outer loop
      vertex 4.47815 3.29209 1
      vertex 4.41354 3.09326 0
      vertex 4.41354 3.09326 1
    endloop
  endfacet
  facet normal 0.406737 0.913545 -0
    outer loop
      vertex 3.19098 2.54894 0
      vertex 3 2.63397 1
      vertex 3.19098 2.54894 1
    endloop
  endfacet
  facet normal 0.406737 0.913545 0
    outer loop
      vertex 3 2.63397 1
      vertex 3.19098 2.54894 0
      vertex 3 2.63397 0
    endloop
  endfacet
  facet normal 0.743145 0.66913 0
    outer loop
      vertex 2.83087 2.75686 1
      vertex 2.69098 2.91221 0
      vertex 2.69098 2.91221 1
    endloop
  endfacet
  facet normal 0.743145 0.66913 0
    outer loop
      vertex 2.69098 2.91221 0
      vertex 2.83087 2.75686 1
      vertex 2.83087 2.75686 0
    endloop
  endfacet
  facet normal 0.994522 -0.104524 0
    outer loop
      vertex 2.5 3.5 1
      vertex 2.52185 3.70791 0
      vertex 2.52185 3.70791 1
    endloop
  endfacet
  facet normal 0.994522 -0.104524 0
    outer loop
      vertex 2.52185 3.70791 0
      vertex 2.5 3.5 1
      vertex 2.5 3.5 0
    endloop
  endfacet
  facet normal -0.207909 0.978148 0
    outer loop
      vertex 3.80902 2.54894 0
      vertex 3.60453 2.50548 1
      vertex 3.80902 2.54894 1
    endloop
  endfacet
  facet normal -0.207909 0.978148 0
    outer loop
      vertex 3.60453 2.50548 1
      vertex 3.80902 2.54894 0
      vertex 3.60453 2.50548 0
    endloop
  endfacet
  facet normal 0.587787 0.809016 -0
    outer loop
      vertex 3 2.63397 0
      vertex 2.83087 2.75686 1
      vertex 3 2.63397 1
    endloop
  endfacet
  facet normal 0.587787 0.809016 0
    outer loop
      vertex 2.83087 2.75686 1
      vertex 3 2.63397 0
      vertex 2.83087 2.75686 0
    endloop
  endfacet
  facet normal -0.587787 0.809016 0
    outer loop
      vertex 4.16913 2.75686 0
      vertex 4 2.63397 1
      vertex 4.16913 2.75686 1
    endloop
  endfacet
  facet normal -0.587787 0.809016 0
    outer loop
      vertex 4 2.63397 1
      vertex 4.16913 2.75686 0
      vertex 4 2.63397 0
    endloop
  endfacet
  facet normal -0.866025 0.5 0
    outer loop
      vertex 4.30902 2.91221 0
      vertex 4.41354 3.09326 1
      vertex 4.41354 3.09326 0
    endloop
  endfacet
  facet normal -0.866025 0.5 0
    outer loop
      vertex 4.41354 3.09326 1
      vertex 4.30902 2.91221 0
      vertex 4.30902 2.91221 1
    endloop
  endfacet
  facet normal 0.207909 0.978148 -0
    outer loop
      vertex 3.39547 2.50548 0
      vertex 3.19098 2.54894 1
      vertex 3.39547 2.50548 1
    endloop
  endfacet
  facet normal 0.207909 0.978148 0
    outer loop
      vertex 3.19098 2.54894 1
      vertex 3.39547 2.50548 0
      vertex 3.19098 2.54894 0
    endloop
  endfacet
  facet normal 0.866025 0.5 0
    outer loop
      vertex 2.69098 2.91221 1
      vertex 2.58645 3.09326 0
      vertex 2.58645 3.09326 1
    endloop
  endfacet
  facet normal 0.866025 0.5 0
    outer loop
      vertex 2.58645 3.09326 0
      vertex 2.69098 2.91221 1
      vertex 2.69098 2.91221 0
    endloop
  endfacet
  facet normal 0.951055 0.30902 0
    outer loop
      vertex 2.58645 3.09326 1
      vertex 2.52185 3.29209 0
      vertex 2.52185 3.29209 1
    endloop
  endfacet
  facet normal 0.951055 0.30902 0
    outer loop
      vertex 2.52185 3.29209 0
      vertex 2.58645 3.09326 1
      vertex 2.58645 3.09326 0
    endloop
  endfacet
  facet normal 0 1 -0
    outer loop
      vertex 3.60453 2.50548 0
      vertex 3.39547 2.50548 1
      vertex 3.60453 2.50548 1
    endloop
  endfacet
  facet normal 0 1 0
    outer loop
      vertex 3.39547 2.50548 1
      vertex 3.60453 2.50548 0
      vertex 3.39547 2.50548 0
    endloop
  endfacet
  facet normal -0.866029 -0.499993 0
    outer loop
      vertex 45.4135 3.90674 0
      vertex 45.309 4.08778 1
      vertex 45.309 4.08778 0
    endloop
  endfacet
  facet normal -0.866029 -0.499993 0
    outer loop
      vertex 45.309 4.08778 1
      vertex 45.4135 3.90674 0
      vertex 45.4135 3.90674 1
    endloop
  endfacet
  facet normal -0.743139 -0.669138 0
    outer loop
      vertex 45.309 4.08778 0
      vertex 45.1691 4.24314 1
      vertex 45.1691 4.24314 0
    endloop
  endfacet
  facet normal -0.743139 -0.669138 0
    outer loop
      vertex 45.1691 4.24314 1
      vertex 45.309 4.08778 0
      vertex 45.309 4.08778 1
    endloop
  endfacet
  facet normal -0.20791 -0.978148 0
    outer loop
      vertex 44.6045 4.49452 0
      vertex 44.809 4.45106 1
      vertex 44.6045 4.49452 1
    endloop
  endfacet
  facet normal -0.20791 -0.978148 -0
    outer loop
      vertex 44.809 4.45106 1
      vertex 44.6045 4.49452 0
      vertex 44.809 4.45106 0
    endloop
  endfacet
  facet normal 0.587783 -0.809019 0
    outer loop
      vertex 43.8309 4.24314 0
      vertex 44 4.36602 1
      vertex 43.8309 4.24314 1
    endloop
  endfacet
  facet normal 0.587783 -0.809019 0
    outer loop
      vertex 44 4.36602 1
      vertex 43.8309 4.24314 0
      vertex 44 4.36602 0
    endloop
  endfacet
  facet normal -0.994523 0.10452 0
    outer loop
      vertex 45.4781 3.29209 0
      vertex 45.5 3.5 1
      vertex 45.5 3.5 0
    endloop
  endfacet
  facet normal -0.994523 0.10452 0
    outer loop
      vertex 45.5 3.5 1
      vertex 45.4781 3.29209 0
      vertex 45.4781 3.29209 1
    endloop
  endfacet
  facet normal -0.406739 0.913545 0
    outer loop
      vertex 45 2.63397 0
      vertex 44.809 2.54894 1
      vertex 45 2.63397 1
    endloop
  endfacet
  facet normal -0.406739 0.913545 0
    outer loop
      vertex 44.809 2.54894 1
      vertex 45 2.63397 0
      vertex 44.809 2.54894 0
    endloop
  endfacet
  facet normal -0.587791 -0.809013 0
    outer loop
      vertex 45 4.36602 0
      vertex 45.1691 4.24314 1
      vertex 45 4.36602 1
    endloop
  endfacet
  facet normal -0.587791 -0.809013 -0
    outer loop
      vertex 45.1691 4.24314 1
      vertex 45 4.36602 0
      vertex 45.1691 4.24314 0
    endloop
  endfacet
  facet normal 0.20791 -0.978148 0
    outer loop
      vertex 44.191 4.45106 0
      vertex 44.3955 4.49452 1
      vertex 44.191 4.45106 1
    endloop
  endfacet
  facet normal 0.20791 -0.978148 0
    outer loop
      vertex 44.3955 4.49452 1
      vertex 44.191 4.45106 0
      vertex 44.3955 4.49452 0
    endloop
  endfacet
  facet normal -0.406739 -0.913545 0
    outer loop
      vertex 44.809 4.45106 0
      vertex 45 4.36602 1
      vertex 44.809 4.45106 1
    endloop
  endfacet
  facet normal -0.406739 -0.913545 -0
    outer loop
      vertex 45 4.36602 1
      vertex 44.809 4.45106 0
      vertex 45 4.36602 0
    endloop
  endfacet
  facet normal 0.994523 0.10452 0
    outer loop
      vertex 43.5219 3.29209 1
      vertex 43.5 3.5 0
      vertex 43.5 3.5 1
    endloop
  endfacet
  facet normal 0.994523 0.10452 0
    outer loop
      vertex 43.5 3.5 0
      vertex 43.5219 3.29209 1
      vertex 43.5219 3.29209 0
    endloop
  endfacet
  facet normal 0.951051 -0.309033 0
    outer loop
      vertex 43.5219 3.70791 1
      vertex 43.5865 3.90674 0
      vertex 43.5865 3.90674 1
    endloop
  endfacet
  facet normal 0.951051 -0.309033 0
    outer loop
      vertex 43.5865 3.90674 0
      vertex 43.5219 3.70791 1
      vertex 43.5219 3.70791 0
    endloop
  endfacet
  facet normal 0.743148 -0.669128 0
    outer loop
      vertex 43.691 4.08778 1
      vertex 43.8309 4.24314 0
      vertex 43.8309 4.24314 1
    endloop
  endfacet
  facet normal 0.743148 -0.669128 0
    outer loop
      vertex 43.8309 4.24314 0
      vertex 43.691 4.08778 1
      vertex 43.691 4.08778 0
    endloop
  endfacet
  facet normal 0.406739 -0.913545 0
    outer loop
      vertex 44 4.36602 0
      vertex 44.191 4.45106 1
      vertex 44 4.36602 1
    endloop
  endfacet
  facet normal 0.406739 -0.913545 0
    outer loop
      vertex 44.191 4.45106 1
      vertex 44 4.36602 0
      vertex 44.191 4.45106 0
    endloop
  endfacet
  facet normal 0.866029 -0.499993 0
    outer loop
      vertex 43.5865 3.90674 1
      vertex 43.691 4.08778 0
      vertex 43.691 4.08778 1
    endloop
  endfacet
  facet normal 0.866029 -0.499993 0
    outer loop
      vertex 43.691 4.08778 0
      vertex 43.5865 3.90674 1
      vertex 43.5865 3.90674 0
    endloop
  endfacet
  facet normal -0.994523 -0.10452 0
    outer loop
      vertex 45.5 3.5 0
      vertex 45.4781 3.70791 1
      vertex 45.4781 3.70791 0
    endloop
  endfacet
  facet normal -0.994523 -0.10452 0
    outer loop
      vertex 45.4781 3.70791 1
      vertex 45.5 3.5 0
      vertex 45.5 3.5 1
    endloop
  endfacet
  facet normal -0.743139 0.669138 0
    outer loop
      vertex 45.1691 2.75686 0
      vertex 45.309 2.91221 1
      vertex 45.309 2.91221 0
    endloop
  endfacet
  facet normal -0.743139 0.669138 0
    outer loop
      vertex 45.309 2.91221 1
      vertex 45.1691 2.75686 0
      vertex 45.1691 2.75686 1
    endloop
  endfacet
  facet normal -0.951051 0.309033 0
    outer loop
      vertex 45.4135 3.09326 0
      vertex 45.4781 3.29209 1
      vertex 45.4781 3.29209 0
    endloop
  endfacet
  facet normal -0.951051 0.309033 0
    outer loop
      vertex 45.4781 3.29209 1
      vertex 45.4135 3.09326 0
      vertex 45.4135 3.09326 1
    endloop
  endfacet
  facet normal 0.406739 0.913545 -0
    outer loop
      vertex 44.191 2.54894 0
      vertex 44 2.63397 1
      vertex 44.191 2.54894 1
    endloop
  endfacet
  facet normal 0.406739 0.913545 0
    outer loop
      vertex 44 2.63397 1
      vertex 44.191 2.54894 0
      vertex 44 2.63397 0
    endloop
  endfacet
  facet normal 0.743148 0.669128 0
    outer loop
      vertex 43.8309 2.75686 1
      vertex 43.691 2.91221 0
      vertex 43.691 2.91221 1
    endloop
  endfacet
  facet normal 0.743148 0.669128 0
    outer loop
      vertex 43.691 2.91221 0
      vertex 43.8309 2.75686 1
      vertex 43.8309 2.75686 0
    endloop
  endfacet
  facet normal -0.951051 -0.309033 0
    outer loop
      vertex 45.4781 3.70791 0
      vertex 45.4135 3.90674 1
      vertex 45.4135 3.90674 0
    endloop
  endfacet
  facet normal -0.951051 -0.309033 0
    outer loop
      vertex 45.4135 3.90674 1
      vertex 45.4781 3.70791 0
      vertex 45.4781 3.70791 1
    endloop
  endfacet
  facet normal 0 -1 0
    outer loop
      vertex 44.3955 4.49452 0
      vertex 44.6045 4.49452 1
      vertex 44.3955 4.49452 1
    endloop
  endfacet
  facet normal 0 -1 -0
    outer loop
      vertex 44.6045 4.49452 1
      vertex 44.3955 4.49452 0
      vertex 44.6045 4.49452 0
    endloop
  endfacet
  facet normal 0.994523 -0.10452 0
    outer loop
      vertex 43.5 3.5 1
      vertex 43.5219 3.70791 0
      vertex 43.5219 3.70791 1
    endloop
  endfacet
  facet normal 0.994523 -0.10452 0
    outer loop
      vertex 43.5219 3.70791 0
      vertex 43.5 3.5 1
      vertex 43.5 3.5 0
    endloop
  endfacet
  facet normal 0.951051 0.309033 0
    outer loop
      vertex 43.5865 3.09326 1
      vertex 43.5219 3.29209 0
      vertex 43.5219 3.29209 1
    endloop
  endfacet
  facet normal 0.951051 0.309033 0
    outer loop
      vertex 43.5219 3.29209 0
      vertex 43.5865 3.09326 1
      vertex 43.5865 3.09326 0
    endloop
  endfacet
  facet normal 0.587783 0.809019 -0
    outer loop
      vertex 44 2.63397 0
      vertex 43.8309 2.75686 1
      vertex 44 2.63397 1
    endloop
  endfacet
  facet normal 0.587783 0.809019 0
    outer loop
      vertex 43.8309 2.75686 1
      vertex 44 2.63397 0
      vertex 43.8309 2.75686 0
    endloop
  endfacet
  facet normal -0.587791 0.809013 0
    outer loop
      vertex 45.1691 2.75686 0
      vertex 45 2.63397 1
      vertex 45.1691 2.75686 1
    endloop
  endfacet
  facet normal -0.587791 0.809013 0
    outer loop
      vertex 45 2.63397 1
      vertex 45.1691 2.75686 0
      vertex 45 2.63397 0
    endloop
  endfacet
  facet normal -0.866029 0.499993 0
    outer loop
      vertex 45.309 2.91221 0
      vertex 45.4135 3.09326 1
      vertex 45.4135 3.09326 0
    endloop
  endfacet
  facet normal -0.866029 0.499993 0
    outer loop
      vertex 45.4135 3.09326 1
      vertex 45.309 2.91221 0
      vertex 45.309 2.91221 1
    endloop
  endfacet
  facet normal 0.20791 0.978148 -0
    outer loop
      vertex 44.3955 2.50548 0
      vertex 44.191 2.54894 1
      vertex 44.3955 2.50548 1
    endloop
  endfacet
  facet normal 0.20791 0.978148 0
    outer loop
      vertex 44.191 2.54894 1
      vertex 44.3955 2.50548 0
      vertex 44.191 2.54894 0
    endloop
  endfacet
  facet normal -0.20791 0.978148 0
    outer loop
      vertex 44.809 2.54894 0
      vertex 44.6045 2.50548 1
      vertex 44.809 2.54894 1
    endloop
  endfacet
  facet normal -0.20791 0.978148 0
    outer loop
      vertex 44.6045 2.50548 1
      vertex 44.809 2.54894 0
      vertex 44.6045 2.50548 0
    endloop
  endfacet
  facet normal 0.866029 0.499993 0
    outer loop
      vertex 43.691 2.91221 1
      vertex 43.5865 3.09326 0
      vertex 43.5865 3.09326 1
    endloop
  endfacet
  facet normal 0.866029 0.499993 0
    outer loop
      vertex 43.5865 3.09326 0
      vertex 43.691 2.91221 1
      vertex 43.691 2.91221 0
    endloop
  endfacet
  facet normal 0 1 -0
    outer loop
      vertex 44.6045 2.50548 0
      vertex 44.3955 2.50548 1
      vertex 44.6045 2.50548 1
    endloop
  endfacet
  facet normal 0 1 0
    outer loop
      vertex 44.3955 2.50548 1
      vertex 44.6045 2.50548 0
      vertex 44.3955 2.50548 0
    endloop
  endfacet
  facet normal 0.994522 0.104524 0
    outer loop
      vertex 2.52185 40.2921 1
      vertex 2.5 40.5 0
      vertex 2.5 40.5 1
    endloop
  endfacet
  facet normal 0.994522 0.104524 0
    outer loop
      vertex 2.5 40.5 0
      vertex 2.52185 40.2921 1
      vertex 2.52185 40.2921 0
    endloop
  endfacet
  facet normal 0 -1 0
    outer loop
      vertex 3.39547 41.4945 0
      vertex 3.60453 41.4945 1
      vertex 3.39547 41.4945 1
    endloop
  endfacet
  facet normal 0 -1 -0
    outer loop
      vertex 3.60453 41.4945 1
      vertex 3.39547 41.4945 0
      vertex 3.60453 41.4945 0
    endloop
  endfacet
  facet normal 0.406729 0.913549 -0
    outer loop
      vertex 3.19098 39.5489 0
      vertex 3 39.634 1
      vertex 3.19098 39.5489 1
    endloop
  endfacet
  facet normal 0.406729 0.913549 0
    outer loop
      vertex 3 39.634 1
      vertex 3.19098 39.5489 0
      vertex 3 39.634 0
    endloop
  endfacet
  facet normal -0.587791 0.809013 0
    outer loop
      vertex 4.16913 39.7569 0
      vertex 4 39.634 1
      vertex 4.16913 39.7569 1
    endloop
  endfacet
  facet normal -0.587791 0.809013 0
    outer loop
      vertex 4 39.634 1
      vertex 4.16913 39.7569 0
      vertex 4 39.634 0
    endloop
  endfacet
  facet normal -0.207909 0.978148 0
    outer loop
      vertex 3.80902 39.5489 0
      vertex 3.60453 39.5055 1
      vertex 3.80902 39.5489 1
    endloop
  endfacet
  facet normal -0.207909 0.978148 0
    outer loop
      vertex 3.60453 39.5055 1
      vertex 3.80902 39.5489 0
      vertex 3.60453 39.5055 0
    endloop
  endfacet
  facet normal 0.951056 0.309019 0
    outer loop
      vertex 2.58645 40.0933 1
      vertex 2.52185 40.2921 0
      vertex 2.52185 40.2921 1
    endloop
  endfacet
  facet normal 0.951056 0.309019 0
    outer loop
      vertex 2.52185 40.2921 0
      vertex 2.58645 40.0933 1
      vertex 2.58645 40.0933 0
    endloop
  endfacet
  facet normal 0.743149 0.669126 0
    outer loop
      vertex 2.83087 39.7569 1
      vertex 2.69098 39.9122 0
      vertex 2.69098 39.9122 1
    endloop
  endfacet
  facet normal 0.743149 0.669126 0
    outer loop
      vertex 2.69098 39.9122 0
      vertex 2.83087 39.7569 1
      vertex 2.83087 39.7569 0
    endloop
  endfacet
  facet normal 0.207909 0.978148 -0
    outer loop
      vertex 3.39547 39.5055 0
      vertex 3.19098 39.5489 1
      vertex 3.39547 39.5055 1
    endloop
  endfacet
  facet normal 0.207909 0.978148 0
    outer loop
      vertex 3.19098 39.5489 1
      vertex 3.39547 39.5055 0
      vertex 3.19098 39.5489 0
    endloop
  endfacet
  facet normal -0.743149 0.669126 0
    outer loop
      vertex 4.16913 39.7569 0
      vertex 4.30902 39.9122 1
      vertex 4.30902 39.9122 0
    endloop
  endfacet
  facet normal -0.743149 0.669126 0
    outer loop
      vertex 4.30902 39.9122 1
      vertex 4.16913 39.7569 0
      vertex 4.16913 39.7569 1
    endloop
  endfacet
  facet normal -0.951056 0.309019 0
    outer loop
      vertex 4.41354 40.0933 0
      vertex 4.47815 40.2921 1
      vertex 4.47815 40.2921 0
    endloop
  endfacet
  facet normal -0.951056 0.309019 0
    outer loop
      vertex 4.47815 40.2921 1
      vertex 4.41354 40.0933 0
      vertex 4.41354 40.0933 1
    endloop
  endfacet
  facet normal -0.406731 0.913548 0
    outer loop
      vertex 4 39.634 0
      vertex 3.80902 39.5489 1
      vertex 4 39.634 1
    endloop
  endfacet
  facet normal -0.406731 0.913548 0
    outer loop
      vertex 3.80902 39.5489 1
      vertex 4 39.634 0
      vertex 3.80902 39.5489 0
    endloop
  endfacet
  facet normal 0.994522 -0.104524 0
    outer loop
      vertex 2.5 40.5 1
      vertex 2.52185 40.7079 0
      vertex 2.52185 40.7079 1
    endloop
  endfacet
  facet normal 0.994522 -0.104524 0
    outer loop
      vertex 2.52185 40.7079 0
      vertex 2.5 40.5 1
      vertex 2.5 40.5 0
    endloop
  endfacet
  facet normal 0.866022 0.500006 0
    outer loop
      vertex 2.69098 39.9122 1
      vertex 2.58645 40.0933 0
      vertex 2.58645 40.0933 1
    endloop
  endfacet
  facet normal 0.866022 0.500006 0
    outer loop
      vertex 2.58645 40.0933 0
      vertex 2.69098 39.9122 1
      vertex 2.69098 39.9122 0
    endloop
  endfacet
  facet normal 0.587793 0.809011 -0
    outer loop
      vertex 3 39.634 0
      vertex 2.83087 39.7569 1
      vertex 3 39.634 1
    endloop
  endfacet
  facet normal 0.587793 0.809011 0
    outer loop
      vertex 2.83087 39.7569 1
      vertex 3 39.634 0
      vertex 2.83087 39.7569 0
    endloop
  endfacet
  facet normal 0 1 -0
    outer loop
      vertex 3.60453 39.5055 0
      vertex 3.39547 39.5055 1
      vertex 3.60453 39.5055 1
    endloop
  endfacet
  facet normal 0 1 0
    outer loop
      vertex 3.39547 39.5055 1
      vertex 3.60453 39.5055 0
      vertex 3.39547 39.5055 0
    endloop
  endfacet
  facet normal -0.866022 0.500006 0
    outer loop
      vertex 4.30902 39.9122 0
      vertex 4.41354 40.0933 1
      vertex 4.41354 40.0933 0
    endloop
  endfacet
  facet normal -0.866022 0.500006 0
    outer loop
      vertex 4.41354 40.0933 1
      vertex 4.30902 39.9122 0
      vertex 4.30902 39.9122 1
    endloop
  endfacet
  facet normal -0.994522 0.104529 0
    outer loop
      vertex 4.47815 40.2921 0
      vertex 4.5 40.5 1
      vertex 4.5 40.5 0
    endloop
  endfacet
  facet normal -0.994522 0.104529 0
    outer loop
      vertex 4.5 40.5 1
      vertex 4.47815 40.2921 0
      vertex 4.47815 40.2921 1
    endloop
  endfacet
  facet normal 0.743149 -0.669126 0
    outer loop
      vertex 2.69098 41.0878 1
      vertex 2.83087 41.2431 0
      vertex 2.83087 41.2431 1
    endloop
  endfacet
  facet normal 0.743149 -0.669126 0
    outer loop
      vertex 2.83087 41.2431 0
      vertex 2.69098 41.0878 1
      vertex 2.69098 41.0878 0
    endloop
  endfacet
  facet normal 0.951056 -0.309019 0
    outer loop
      vertex 2.52185 40.7079 1
      vertex 2.58645 40.9067 0
      vertex 2.58645 40.9067 1
    endloop
  endfacet
  facet normal 0.951056 -0.309019 0
    outer loop
      vertex 2.58645 40.9067 0
      vertex 2.52185 40.7079 1
      vertex 2.52185 40.7079 0
    endloop
  endfacet
  facet normal 0.866022 -0.500006 0
    outer loop
      vertex 2.58645 40.9067 1
      vertex 2.69098 41.0878 0
      vertex 2.69098 41.0878 1
    endloop
  endfacet
  facet normal 0.866022 -0.500006 0
    outer loop
      vertex 2.69098 41.0878 0
      vertex 2.58645 40.9067 1
      vertex 2.58645 40.9067 0
    endloop
  endfacet
  facet normal -0.587781 -0.80902 0
    outer loop
      vertex 4 41.366 0
      vertex 4.16913 41.2431 1
      vertex 4 41.366 1
    endloop
  endfacet
  facet normal -0.587781 -0.80902 -0
    outer loop
      vertex 4.16913 41.2431 1
      vertex 4 41.366 0
      vertex 4.16913 41.2431 0
    endloop
  endfacet
  facet normal -0.743149 -0.669126 0
    outer loop
      vertex 4.30902 41.0878 0
      vertex 4.16913 41.2431 1
      vertex 4.16913 41.2431 0
    endloop
  endfacet
  facet normal -0.743149 -0.669126 0
    outer loop
      vertex 4.16913 41.2431 1
      vertex 4.30902 41.0878 0
      vertex 4.30902 41.0878 1
    endloop
  endfacet
  facet normal 0.406746 -0.913541 0
    outer loop
      vertex 3 41.366 0
      vertex 3.19098 41.4511 1
      vertex 3 41.366 1
    endloop
  endfacet
  facet normal 0.406746 -0.913541 0
    outer loop
      vertex 3.19098 41.4511 1
      vertex 3 41.366 0
      vertex 3.19098 41.4511 0
    endloop
  endfacet
  facet normal 0.207909 -0.978148 0
    outer loop
      vertex 3.19098 41.4511 0
      vertex 3.39547 41.4945 1
      vertex 3.19098 41.4511 1
    endloop
  endfacet
  facet normal 0.207909 -0.978148 0
    outer loop
      vertex 3.39547 41.4945 1
      vertex 3.19098 41.4511 0
      vertex 3.39547 41.4945 0
    endloop
  endfacet
  facet normal 0.587779 -0.809022 0
    outer loop
      vertex 2.83087 41.2431 0
      vertex 3 41.366 1
      vertex 2.83087 41.2431 1
    endloop
  endfacet
  facet normal 0.587779 -0.809022 0
    outer loop
      vertex 3 41.366 1
      vertex 2.83087 41.2431 0
      vertex 3 41.366 0
    endloop
  endfacet
  facet normal -0.207909 -0.978148 0
    outer loop
      vertex 3.60453 41.4945 0
      vertex 3.80902 41.4511 1
      vertex 3.60453 41.4945 1
    endloop
  endfacet
  facet normal -0.207909 -0.978148 -0
    outer loop
      vertex 3.80902 41.4511 1
      vertex 3.60453 41.4945 0
      vertex 3.80902 41.4511 0
    endloop
  endfacet
  facet normal -0.406744 -0.913542 0
    outer loop
      vertex 3.80902 41.4511 0
      vertex 4 41.366 1
      vertex 3.80902 41.4511 1
    endloop
  endfacet
  facet normal -0.406744 -0.913542 -0
    outer loop
      vertex 4 41.366 1
      vertex 3.80902 41.4511 0
      vertex 4 41.366 0
    endloop
  endfacet
  facet normal -0.866022 -0.500006 0
    outer loop
      vertex 4.41354 40.9067 0
      vertex 4.30902 41.0878 1
      vertex 4.30902 41.0878 0
    endloop
  endfacet
  facet normal -0.866022 -0.500006 0
    outer loop
      vertex 4.30902 41.0878 1
      vertex 4.41354 40.9067 0
      vertex 4.41354 40.9067 1
    endloop
  endfacet
  facet normal -0.951056 -0.309019 0
    outer loop
      vertex 4.47815 40.7079 0
      vertex 4.41354 40.9067 1
      vertex 4.41354 40.9067 0
    endloop
  endfacet
  facet normal -0.951056 -0.309019 0
    outer loop
      vertex 4.41354 40.9067 1
      vertex 4.47815 40.7079 0
      vertex 4.47815 40.7079 1
    endloop
  endfacet
  facet normal -0.994522 -0.104529 0
    outer loop
      vertex 4.5 40.5 0
      vertex 4.47815 40.7079 1
      vertex 4.47815 40.7079 0
    endloop
  endfacet
  facet normal -0.994522 -0.104529 0
    outer loop
      vertex 4.47815 40.7079 1
      vertex 4.5 40.5 0
      vertex 4.5 40.5 1
    endloop
  endfacet
  facet normal -0.951052 0.309031 0
    outer loop
      vertex 45.4135 40.0933 0
      vertex 45.4781 40.2921 1
      vertex 45.4781 40.2921 0
    endloop
  endfacet
  facet normal -0.951052 0.309031 0
    outer loop
      vertex 45.4781 40.2921 1
      vertex 45.4135 40.0933 0
      vertex 45.4135 40.0933 1
    endloop
  endfacet
  facet normal 0.743152 0.669123 0
    outer loop
      vertex 43.8309 39.7569 1
      vertex 43.691 39.9122 0
      vertex 43.691 39.9122 1
    endloop
  endfacet
  facet normal 0.743152 0.669123 0
    outer loop
      vertex 43.691 39.9122 0
      vertex 43.8309 39.7569 1
      vertex 43.8309 39.7569 0
    endloop
  endfacet
  facet normal 0.20791 0.978148 -0
    outer loop
      vertex 44.3955 39.5055 0
      vertex 44.191 39.5489 1
      vertex 44.3955 39.5055 1
    endloop
  endfacet
  facet normal 0.20791 0.978148 0
    outer loop
      vertex 44.191 39.5489 1
      vertex 44.3955 39.5055 0
      vertex 44.191 39.5489 0
    endloop
  endfacet
  facet normal 0.406731 0.913548 -0
    outer loop
      vertex 44.191 39.5489 0
      vertex 44 39.634 1
      vertex 44.191 39.5489 1
    endloop
  endfacet
  facet normal 0.406731 0.913548 0
    outer loop
      vertex 44 39.634 1
      vertex 44.191 39.5489 0
      vertex 44 39.634 0
    endloop
  endfacet
  facet normal -0.20791 0.978148 0
    outer loop
      vertex 44.809 39.5489 0
      vertex 44.6045 39.5055 1
      vertex 44.809 39.5489 1
    endloop
  endfacet
  facet normal -0.20791 0.978148 0
    outer loop
      vertex 44.6045 39.5055 1
      vertex 44.809 39.5489 0
      vertex 44.6045 39.5055 0
    endloop
  endfacet
  facet normal 0.406746 -0.913541 0
    outer loop
      vertex 44 41.366 0
      vertex 44.191 41.4511 1
      vertex 44 41.366 1
    endloop
  endfacet
  facet normal 0.406746 -0.913541 0
    outer loop
      vertex 44.191 41.4511 1
      vertex 44 41.366 0
      vertex 44.191 41.4511 0
    endloop
  endfacet
  facet normal 0.951052 0.309031 0
    outer loop
      vertex 43.5865 40.0933 1
      vertex 43.5219 40.2921 0
      vertex 43.5219 40.2921 1
    endloop
  endfacet
  facet normal 0.951052 0.309031 0
    outer loop
      vertex 43.5219 40.2921 0
      vertex 43.5865 40.0933 1
      vertex 43.5865 40.0933 0
    endloop
  endfacet
  facet normal 0.866026 0.499999 0
    outer loop
      vertex 43.691 39.9122 1
      vertex 43.5865 40.0933 0
      vertex 43.5865 40.0933 1
    endloop
  endfacet
  facet normal 0.866026 0.499999 0
    outer loop
      vertex 43.5865 40.0933 0
      vertex 43.691 39.9122 1
      vertex 43.691 39.9122 0
    endloop
  endfacet
  facet normal 0 1 -0
    outer loop
      vertex 44.6045 39.5055 0
      vertex 44.3955 39.5055 1
      vertex 44.6045 39.5055 1
    endloop
  endfacet
  facet normal 0 1 0
    outer loop
      vertex 44.3955 39.5055 1
      vertex 44.6045 39.5055 0
      vertex 44.3955 39.5055 0
    endloop
  endfacet
  facet normal -0.994523 0.10452 0
    outer loop
      vertex 45.4781 40.2921 0
      vertex 45.5 40.5 1
      vertex 45.5 40.5 0
    endloop
  endfacet
  facet normal -0.994523 0.10452 0
    outer loop
      vertex 45.5 40.5 1
      vertex 45.4781 40.2921 0
      vertex 45.4781 40.2921 1
    endloop
  endfacet
  facet normal -0.743143 0.669133 0
    outer loop
      vertex 45.1691 39.7569 0
      vertex 45.309 39.9122 1
      vertex 45.309 39.9122 0
    endloop
  endfacet
  facet normal -0.743143 0.669133 0
    outer loop
      vertex 45.309 39.9122 1
      vertex 45.1691 39.7569 0
      vertex 45.1691 39.7569 1
    endloop
  endfacet
  facet normal -0.406731 0.913548 0
    outer loop
      vertex 45 39.634 0
      vertex 44.809 39.5489 1
      vertex 45 39.634 1
    endloop
  endfacet
  facet normal -0.406731 0.913548 0
    outer loop
      vertex 44.809 39.5489 1
      vertex 45 39.634 0
      vertex 44.809 39.5489 0
    endloop
  endfacet
  facet normal 0.994523 0.10452 0
    outer loop
      vertex 43.5219 40.2921 1
      vertex 43.5 40.5 0
      vertex 43.5 40.5 1
    endloop
  endfacet
  facet normal 0.994523 0.10452 0
    outer loop
      vertex 43.5 40.5 0
      vertex 43.5219 40.2921 1
      vertex 43.5219 40.2921 0
    endloop
  endfacet
  facet normal 0.994523 -0.10452 0
    outer loop
      vertex 43.5 40.5 1
      vertex 43.5219 40.7079 0
      vertex 43.5219 40.7079 1
    endloop
  endfacet
  facet normal 0.994523 -0.10452 0
    outer loop
      vertex 43.5219 40.7079 0
      vertex 43.5 40.5 1
      vertex 43.5 40.5 0
    endloop
  endfacet
  facet normal 0.951052 -0.309031 0
    outer loop
      vertex 43.5219 40.7079 1
      vertex 43.5865 40.9067 0
      vertex 43.5865 40.9067 1
    endloop
  endfacet
  facet normal 0.951052 -0.309031 0
    outer loop
      vertex 43.5865 40.9067 0
      vertex 43.5219 40.7079 1
      vertex 43.5219 40.7079 0
    endloop
  endfacet
  facet normal -0.994523 -0.10452 0
    outer loop
      vertex 45.5 40.5 0
      vertex 45.4781 40.7079 1
      vertex 45.4781 40.7079 0
    endloop
  endfacet
  facet normal -0.994523 -0.10452 0
    outer loop
      vertex 45.4781 40.7079 1
      vertex 45.5 40.5 0
      vertex 45.5 40.5 1
    endloop
  endfacet
  facet normal 0.20791 -0.978148 0
    outer loop
      vertex 44.191 41.4511 0
      vertex 44.3955 41.4945 1
      vertex 44.191 41.4511 1
    endloop
  endfacet
  facet normal 0.20791 -0.978148 0
    outer loop
      vertex 44.3955 41.4945 1
      vertex 44.191 41.4511 0
      vertex 44.3955 41.4945 0
    endloop
  endfacet
  facet normal 0.587777 -0.809023 0
    outer loop
      vertex 43.8309 41.2431 0
      vertex 44 41.366 1
      vertex 43.8309 41.2431 1
    endloop
  endfacet
  facet normal 0.587777 -0.809023 0
    outer loop
      vertex 44 41.366 1
      vertex 43.8309 41.2431 0
      vertex 44 41.366 0
    endloop
  endfacet
  facet normal 0.587789 0.809015 -0
    outer loop
      vertex 44 39.634 0
      vertex 43.8309 39.7569 1
      vertex 44 39.634 1
    endloop
  endfacet
  facet normal 0.587789 0.809015 0
    outer loop
      vertex 43.8309 39.7569 1
      vertex 44 39.634 0
      vertex 43.8309 39.7569 0
    endloop
  endfacet
  facet normal -0.866026 0.499999 0
    outer loop
      vertex 45.309 39.9122 0
      vertex 45.4135 40.0933 1
      vertex 45.4135 40.0933 0
    endloop
  endfacet
  facet normal -0.866026 0.499999 0
    outer loop
      vertex 45.4135 40.0933 1
      vertex 45.309 39.9122 0
      vertex 45.309 39.9122 1
    endloop
  endfacet
  facet normal -0.587797 0.809008 0
    outer loop
      vertex 45.1691 39.7569 0
      vertex 45 39.634 1
      vertex 45.1691 39.7569 1
    endloop
  endfacet
  facet normal -0.587797 0.809008 0
    outer loop
      vertex 45 39.634 1
      vertex 45.1691 39.7569 0
      vertex 45 39.634 0
    endloop
  endfacet
  facet normal 0.866026 -0.499999 0
    outer loop
      vertex 43.5865 40.9067 1
      vertex 43.691 41.0878 0
      vertex 43.691 41.0878 1
    endloop
  endfacet
  facet normal 0.866026 -0.499999 0
    outer loop
      vertex 43.691 41.0878 0
      vertex 43.5865 40.9067 1
      vertex 43.5865 40.9067 0
    endloop
  endfacet
  facet normal 0.743152 -0.669123 0
    outer loop
      vertex 43.691 41.0878 1
      vertex 43.8309 41.2431 0
      vertex 43.8309 41.2431 1
    endloop
  endfacet
  facet normal 0.743152 -0.669123 0
    outer loop
      vertex 43.8309 41.2431 0
      vertex 43.691 41.0878 1
      vertex 43.691 41.0878 0
    endloop
  endfacet
  facet normal 0 -1 0
    outer loop
      vertex 44.3955 41.4945 0
      vertex 44.6045 41.4945 1
      vertex 44.3955 41.4945 1
    endloop
  endfacet
  facet normal 0 -1 -0
    outer loop
      vertex 44.6045 41.4945 1
      vertex 44.3955 41.4945 0
      vertex 44.6045 41.4945 0
    endloop
  endfacet
  facet normal -0.20791 -0.978148 0
    outer loop
      vertex 44.6045 41.4945 0
      vertex 44.809 41.4511 1
      vertex 44.6045 41.4945 1
    endloop
  endfacet
  facet normal -0.20791 -0.978148 -0
    outer loop
      vertex 44.809 41.4511 1
      vertex 44.6045 41.4945 0
      vertex 44.809 41.4511 0
    endloop
  endfacet
  facet normal -0.406746 -0.913541 0
    outer loop
      vertex 44.809 41.4511 0
      vertex 45 41.366 1
      vertex 44.809 41.4511 1
    endloop
  endfacet
  facet normal -0.406746 -0.913541 -0
    outer loop
      vertex 45 41.366 1
      vertex 44.809 41.4511 0
      vertex 45 41.366 0
    endloop
  endfacet
  facet normal -0.951052 -0.309031 0
    outer loop
      vertex 45.4781 40.7079 0
      vertex 45.4135 40.9067 1
      vertex 45.4135 40.9067 0
    endloop
  endfacet
  facet normal -0.951052 -0.309031 0
    outer loop
      vertex 45.4135 40.9067 1
      vertex 45.4781 40.7079 0
      vertex 45.4781 40.7079 1
    endloop
  endfacet
  facet normal -0.743143 -0.669133 0
    outer loop
      vertex 45.309 41.0878 0
      vertex 45.1691 41.2431 1
      vertex 45.1691 41.2431 0
    endloop
  endfacet
  facet normal -0.743143 -0.669133 0
    outer loop
      vertex 45.1691 41.2431 1
      vertex 45.309 41.0878 0
      vertex 45.309 41.0878 1
    endloop
  endfacet
  facet normal -0.866026 -0.499999 0
    outer loop
      vertex 45.4135 40.9067 0
      vertex 45.309 41.0878 1
      vertex 45.309 41.0878 0
    endloop
  endfacet
  facet normal -0.866026 -0.499999 0
    outer loop
      vertex 45.309 41.0878 1
      vertex 45.4135 40.9067 0
      vertex 45.4135 40.9067 1
    endloop
  endfacet
  facet normal -0.587785 -0.809017 0
    outer loop
      vertex 45 41.366 0
      vertex 45.1691 41.2431 1
      vertex 45 41.366 1
    endloop
  endfacet
  facet normal -0.587785 -0.809017 -0
    outer loop
      vertex 45.1691 41.2431 1
      vertex 45 41.366 0
      vertex 45.1691 41.2431 0
    endloop
  endfacet
endsolid OpenSCAD_Model
